G04 #@! TF.FileFunction,Soldermask,Bot*
%FSLAX46Y46*%
G04 Gerber Fmt 4.6, Leading zero omitted, Abs format (unit mm)*
G04 Created by KiCad (PCBNEW 4.0.5+dfsg1-4) date Tue Feb 14 02:46:29 2017*
%MOMM*%
%LPD*%
G01*
G04 APERTURE LIST*
%ADD10C,0.100000*%
%ADD11C,0.002540*%
%ADD12C,2.000000*%
G04 APERTURE END LIST*
D10*
D11*
G36*
X7802880Y-2994660D02*
X7858760Y-3058160D01*
X7912100Y-3124200D01*
X7965440Y-3197860D01*
X8013700Y-3271520D01*
X8061960Y-3350260D01*
X8110220Y-3431540D01*
X8155940Y-3515360D01*
X8204200Y-3601720D01*
X8249920Y-3688080D01*
X8298180Y-3776980D01*
X8346440Y-3865880D01*
X8397240Y-3954780D01*
X8448040Y-4043680D01*
X8503920Y-4132580D01*
X8577580Y-4091940D01*
X8679180Y-4043680D01*
X8788400Y-3992880D01*
X8884920Y-3939540D01*
X8948420Y-3886200D01*
X8961120Y-3840480D01*
X8920480Y-3761740D01*
X8872220Y-3677920D01*
X8821420Y-3591560D01*
X8768080Y-3505200D01*
X8712200Y-3418840D01*
X8658860Y-3332480D01*
X8605520Y-3246120D01*
X8554720Y-3164840D01*
X8511540Y-3086100D01*
X8473440Y-3012440D01*
X8442960Y-2943860D01*
X7802880Y-2994660D01*
X7802880Y-2994660D01*
G37*
X7802880Y-2994660D02*
X7858760Y-3058160D01*
X7912100Y-3124200D01*
X7965440Y-3197860D01*
X8013700Y-3271520D01*
X8061960Y-3350260D01*
X8110220Y-3431540D01*
X8155940Y-3515360D01*
X8204200Y-3601720D01*
X8249920Y-3688080D01*
X8298180Y-3776980D01*
X8346440Y-3865880D01*
X8397240Y-3954780D01*
X8448040Y-4043680D01*
X8503920Y-4132580D01*
X8577580Y-4091940D01*
X8679180Y-4043680D01*
X8788400Y-3992880D01*
X8884920Y-3939540D01*
X8948420Y-3886200D01*
X8961120Y-3840480D01*
X8920480Y-3761740D01*
X8872220Y-3677920D01*
X8821420Y-3591560D01*
X8768080Y-3505200D01*
X8712200Y-3418840D01*
X8658860Y-3332480D01*
X8605520Y-3246120D01*
X8554720Y-3164840D01*
X8511540Y-3086100D01*
X8473440Y-3012440D01*
X8442960Y-2943860D01*
X7802880Y-2994660D01*
G36*
X1767840Y-6990080D02*
X1757680Y-7094220D01*
X1744980Y-7195820D01*
X1732280Y-7289800D01*
X1714500Y-7378700D01*
X1696720Y-7467600D01*
X1678940Y-7556500D01*
X1656080Y-7645400D01*
X1630680Y-7734300D01*
X1602740Y-7830820D01*
X1574800Y-7932420D01*
X1544320Y-8023860D01*
X1513840Y-8115300D01*
X1483360Y-8206740D01*
X1450340Y-8295640D01*
X1414780Y-8384540D01*
X1379220Y-8473440D01*
X1341120Y-8562340D01*
X1300480Y-8648700D01*
X1259840Y-8735060D01*
X1219200Y-8821420D01*
X1173480Y-8907780D01*
X1130300Y-8991600D01*
X1082040Y-9075420D01*
X1033780Y-9159240D01*
X985520Y-9243060D01*
X947420Y-9334500D01*
X952500Y-9403080D01*
X985520Y-9458960D01*
X1031240Y-9499600D01*
X1305560Y-9679940D01*
X1348740Y-9611360D01*
X1399540Y-9621520D01*
X1465580Y-9616440D01*
X1567180Y-9601200D01*
X1666240Y-9588500D01*
X1767840Y-9575800D01*
X1869440Y-9565640D01*
X1971040Y-9558020D01*
X2072640Y-9550400D01*
X2174240Y-9545320D01*
X2275840Y-9542780D01*
X2377440Y-9540240D01*
X2479040Y-9540240D01*
X2580640Y-9542780D01*
X2682240Y-9547860D01*
X2783840Y-9552940D01*
X2885440Y-9560560D01*
X2984500Y-9568180D01*
X3083560Y-9580880D01*
X3182620Y-9593580D01*
X3279140Y-9608820D01*
X3378200Y-9624060D01*
X3474720Y-9641840D01*
X3573780Y-9662160D01*
X3670300Y-9685020D01*
X3766820Y-9707880D01*
X3863340Y-9733280D01*
X3959860Y-9758680D01*
X4056380Y-9789160D01*
X4152900Y-9819640D01*
X4191000Y-9738360D01*
X4226560Y-9659620D01*
X4259580Y-9578340D01*
X4292600Y-9497060D01*
X4323080Y-9415780D01*
X4351020Y-9331960D01*
X4257040Y-9301480D01*
X4163060Y-9273540D01*
X4066540Y-9243060D01*
X3972560Y-9217660D01*
X3876040Y-9192260D01*
X3782060Y-9169400D01*
X3688080Y-9146540D01*
X3589020Y-9126220D01*
X3489960Y-9108440D01*
X3390900Y-9093200D01*
X3291840Y-9080500D01*
X3192780Y-9067800D01*
X3091180Y-9055100D01*
X2992120Y-9044940D01*
X3081020Y-9014460D01*
X3167380Y-8981440D01*
X3253740Y-8945880D01*
X3342640Y-8912860D01*
X3426460Y-8877300D01*
X3512820Y-8841740D01*
X3596640Y-8803640D01*
X3680460Y-8765540D01*
X3764280Y-8727440D01*
X3845560Y-8689340D01*
X3926840Y-8648700D01*
X4018280Y-8600440D01*
X4104640Y-8554720D01*
X4191000Y-8506460D01*
X4274820Y-8460740D01*
X4358640Y-8412480D01*
X4439920Y-8364220D01*
X4523740Y-8313420D01*
X4605020Y-8262620D01*
X4686300Y-8211820D01*
X4765040Y-8158480D01*
X4848860Y-8102600D01*
X4930140Y-8044180D01*
X4983480Y-8003540D01*
X5034280Y-7962900D01*
X5024120Y-7904480D01*
X5016500Y-7846060D01*
X5016500Y-7846060D01*
X5013960Y-7843520D01*
X5003800Y-7749540D01*
X4993640Y-7655560D01*
X4983480Y-7561580D01*
X4975860Y-7467600D01*
X4968240Y-7371080D01*
X4960620Y-7277100D01*
X4955540Y-7180580D01*
X4950460Y-7084060D01*
X4945380Y-6990080D01*
X4864100Y-7056120D01*
X4782820Y-7119620D01*
X4701540Y-7183120D01*
X4620260Y-7246620D01*
X4538980Y-7305040D01*
X4457700Y-7363460D01*
X4373880Y-7421880D01*
X4292600Y-7477760D01*
X4208780Y-7533640D01*
X4124960Y-7586980D01*
X4038600Y-7640320D01*
X3952240Y-7693660D01*
X3865880Y-7744460D01*
X3776980Y-7795260D01*
X3688080Y-7843520D01*
X3596640Y-7894320D01*
X3507740Y-7940040D01*
X3418840Y-7985760D01*
X3327400Y-8028940D01*
X3235960Y-8072120D01*
X3147060Y-8115300D01*
X3055620Y-8155940D01*
X2961640Y-8194040D01*
X2870200Y-8234680D01*
X2778760Y-8270240D01*
X2684780Y-8308340D01*
X2590800Y-8343900D01*
X2496820Y-8376920D01*
X2402840Y-8409940D01*
X2308860Y-8442960D01*
X2212340Y-8473440D01*
X2118360Y-8503920D01*
X2021840Y-8531860D01*
X1925320Y-8559800D01*
X1960880Y-8473440D01*
X1993900Y-8387080D01*
X2026920Y-8300720D01*
X2059940Y-8214360D01*
X2087880Y-8128000D01*
X2118360Y-8031480D01*
X2146300Y-7940040D01*
X2171700Y-7851140D01*
X2197100Y-7762240D01*
X2219960Y-7673340D01*
X2240280Y-7584440D01*
X2260600Y-7490460D01*
X2275840Y-7393940D01*
X2291080Y-7292340D01*
X2301240Y-7205980D01*
X2308860Y-7117080D01*
X2316480Y-7015480D01*
X2255520Y-7023100D01*
X2194560Y-7025640D01*
X2103120Y-7025640D01*
X2009140Y-7023100D01*
X1917700Y-7015480D01*
X1841500Y-7002780D01*
X1767840Y-6990080D01*
X1767840Y-6990080D01*
X1767840Y-6990080D01*
G37*
X1767840Y-6990080D02*
X1757680Y-7094220D01*
X1744980Y-7195820D01*
X1732280Y-7289800D01*
X1714500Y-7378700D01*
X1696720Y-7467600D01*
X1678940Y-7556500D01*
X1656080Y-7645400D01*
X1630680Y-7734300D01*
X1602740Y-7830820D01*
X1574800Y-7932420D01*
X1544320Y-8023860D01*
X1513840Y-8115300D01*
X1483360Y-8206740D01*
X1450340Y-8295640D01*
X1414780Y-8384540D01*
X1379220Y-8473440D01*
X1341120Y-8562340D01*
X1300480Y-8648700D01*
X1259840Y-8735060D01*
X1219200Y-8821420D01*
X1173480Y-8907780D01*
X1130300Y-8991600D01*
X1082040Y-9075420D01*
X1033780Y-9159240D01*
X985520Y-9243060D01*
X947420Y-9334500D01*
X952500Y-9403080D01*
X985520Y-9458960D01*
X1031240Y-9499600D01*
X1305560Y-9679940D01*
X1348740Y-9611360D01*
X1399540Y-9621520D01*
X1465580Y-9616440D01*
X1567180Y-9601200D01*
X1666240Y-9588500D01*
X1767840Y-9575800D01*
X1869440Y-9565640D01*
X1971040Y-9558020D01*
X2072640Y-9550400D01*
X2174240Y-9545320D01*
X2275840Y-9542780D01*
X2377440Y-9540240D01*
X2479040Y-9540240D01*
X2580640Y-9542780D01*
X2682240Y-9547860D01*
X2783840Y-9552940D01*
X2885440Y-9560560D01*
X2984500Y-9568180D01*
X3083560Y-9580880D01*
X3182620Y-9593580D01*
X3279140Y-9608820D01*
X3378200Y-9624060D01*
X3474720Y-9641840D01*
X3573780Y-9662160D01*
X3670300Y-9685020D01*
X3766820Y-9707880D01*
X3863340Y-9733280D01*
X3959860Y-9758680D01*
X4056380Y-9789160D01*
X4152900Y-9819640D01*
X4191000Y-9738360D01*
X4226560Y-9659620D01*
X4259580Y-9578340D01*
X4292600Y-9497060D01*
X4323080Y-9415780D01*
X4351020Y-9331960D01*
X4257040Y-9301480D01*
X4163060Y-9273540D01*
X4066540Y-9243060D01*
X3972560Y-9217660D01*
X3876040Y-9192260D01*
X3782060Y-9169400D01*
X3688080Y-9146540D01*
X3589020Y-9126220D01*
X3489960Y-9108440D01*
X3390900Y-9093200D01*
X3291840Y-9080500D01*
X3192780Y-9067800D01*
X3091180Y-9055100D01*
X2992120Y-9044940D01*
X3081020Y-9014460D01*
X3167380Y-8981440D01*
X3253740Y-8945880D01*
X3342640Y-8912860D01*
X3426460Y-8877300D01*
X3512820Y-8841740D01*
X3596640Y-8803640D01*
X3680460Y-8765540D01*
X3764280Y-8727440D01*
X3845560Y-8689340D01*
X3926840Y-8648700D01*
X4018280Y-8600440D01*
X4104640Y-8554720D01*
X4191000Y-8506460D01*
X4274820Y-8460740D01*
X4358640Y-8412480D01*
X4439920Y-8364220D01*
X4523740Y-8313420D01*
X4605020Y-8262620D01*
X4686300Y-8211820D01*
X4765040Y-8158480D01*
X4848860Y-8102600D01*
X4930140Y-8044180D01*
X4983480Y-8003540D01*
X5034280Y-7962900D01*
X5024120Y-7904480D01*
X5016500Y-7846060D01*
X5016500Y-7846060D01*
X5013960Y-7843520D01*
X5003800Y-7749540D01*
X4993640Y-7655560D01*
X4983480Y-7561580D01*
X4975860Y-7467600D01*
X4968240Y-7371080D01*
X4960620Y-7277100D01*
X4955540Y-7180580D01*
X4950460Y-7084060D01*
X4945380Y-6990080D01*
X4864100Y-7056120D01*
X4782820Y-7119620D01*
X4701540Y-7183120D01*
X4620260Y-7246620D01*
X4538980Y-7305040D01*
X4457700Y-7363460D01*
X4373880Y-7421880D01*
X4292600Y-7477760D01*
X4208780Y-7533640D01*
X4124960Y-7586980D01*
X4038600Y-7640320D01*
X3952240Y-7693660D01*
X3865880Y-7744460D01*
X3776980Y-7795260D01*
X3688080Y-7843520D01*
X3596640Y-7894320D01*
X3507740Y-7940040D01*
X3418840Y-7985760D01*
X3327400Y-8028940D01*
X3235960Y-8072120D01*
X3147060Y-8115300D01*
X3055620Y-8155940D01*
X2961640Y-8194040D01*
X2870200Y-8234680D01*
X2778760Y-8270240D01*
X2684780Y-8308340D01*
X2590800Y-8343900D01*
X2496820Y-8376920D01*
X2402840Y-8409940D01*
X2308860Y-8442960D01*
X2212340Y-8473440D01*
X2118360Y-8503920D01*
X2021840Y-8531860D01*
X1925320Y-8559800D01*
X1960880Y-8473440D01*
X1993900Y-8387080D01*
X2026920Y-8300720D01*
X2059940Y-8214360D01*
X2087880Y-8128000D01*
X2118360Y-8031480D01*
X2146300Y-7940040D01*
X2171700Y-7851140D01*
X2197100Y-7762240D01*
X2219960Y-7673340D01*
X2240280Y-7584440D01*
X2260600Y-7490460D01*
X2275840Y-7393940D01*
X2291080Y-7292340D01*
X2301240Y-7205980D01*
X2308860Y-7117080D01*
X2316480Y-7015480D01*
X2255520Y-7023100D01*
X2194560Y-7025640D01*
X2103120Y-7025640D01*
X2009140Y-7023100D01*
X1917700Y-7015480D01*
X1841500Y-7002780D01*
X1767840Y-6990080D01*
X1767840Y-6990080D01*
G36*
X9126220Y-4175760D02*
X9116060Y-4183380D01*
X9039860Y-4234180D01*
X8961120Y-4282440D01*
X8879840Y-4325620D01*
X8808720Y-4361180D01*
X8737600Y-4391660D01*
X8666480Y-4422140D01*
X8722360Y-4516120D01*
X8775700Y-4597400D01*
X8829040Y-4673600D01*
X8884920Y-4752340D01*
X8948420Y-4838700D01*
X9006840Y-4917440D01*
X9065260Y-4993640D01*
X9126220Y-5067300D01*
X9187180Y-5143500D01*
X9250680Y-5214620D01*
X9316720Y-5288280D01*
X9382760Y-5359400D01*
X9448800Y-5427980D01*
X9519920Y-5496560D01*
X9591040Y-5565140D01*
X9662160Y-5631180D01*
X9738360Y-5697220D01*
X9814560Y-5763260D01*
X9890760Y-5826760D01*
X9972040Y-5890260D01*
X10050780Y-5951220D01*
X10129520Y-6004560D01*
X10210800Y-6057900D01*
X10109200Y-6075680D01*
X10010140Y-6088380D01*
X9908540Y-6103620D01*
X9809480Y-6116320D01*
X9707880Y-6129020D01*
X9606280Y-6139180D01*
X9507220Y-6149340D01*
X9405620Y-6156960D01*
X9304020Y-6164580D01*
X9204960Y-6172200D01*
X9103360Y-6177280D01*
X9001760Y-6182360D01*
X8900160Y-6184900D01*
X8798560Y-6187440D01*
X8696960Y-6189980D01*
X8595360Y-6189980D01*
X8493760Y-6187440D01*
X8392160Y-6187440D01*
X8290560Y-6182360D01*
X8188960Y-6179820D01*
X8084820Y-6174740D01*
X7983220Y-6167120D01*
X7881620Y-6159500D01*
X7782560Y-6151880D01*
X7686040Y-6144260D01*
X7589520Y-6134100D01*
X7493000Y-6123940D01*
X7396480Y-6113780D01*
X7302500Y-6101080D01*
X7208520Y-6085840D01*
X7112000Y-6070600D01*
X7018020Y-6055360D01*
X6921500Y-6037580D01*
X6824980Y-6017260D01*
X6725920Y-5996940D01*
X6626860Y-5974080D01*
X6527800Y-5951220D01*
X6423660Y-5923280D01*
X6418580Y-6022340D01*
X6413500Y-6121400D01*
X6410960Y-6217920D01*
X6408420Y-6316980D01*
X6408420Y-6416040D01*
X6408420Y-6512560D01*
X6410960Y-6606540D01*
X6413500Y-6700520D01*
X6418580Y-6797040D01*
X6423660Y-6891020D01*
X6517640Y-6911340D01*
X6593840Y-6926580D01*
X6662420Y-6941820D01*
X6741160Y-6954520D01*
X6832600Y-6972300D01*
X6929120Y-6990080D01*
X7028180Y-7005320D01*
X7124700Y-7020560D01*
X7223760Y-7033260D01*
X7322820Y-7045960D01*
X7419340Y-7058660D01*
X7518400Y-7071360D01*
X7617460Y-7081520D01*
X7716520Y-7089140D01*
X7815580Y-7096760D01*
X7914640Y-7104380D01*
X8013700Y-7112000D01*
X8115300Y-7117080D01*
X8214360Y-7119620D01*
X8305800Y-7122160D01*
X8397240Y-7122160D01*
X8488680Y-7122160D01*
X8582660Y-7122160D01*
X8674100Y-7119620D01*
X8768080Y-7117080D01*
X8862060Y-7112000D01*
X8953500Y-7106920D01*
X9047480Y-7101840D01*
X9141460Y-7096760D01*
X9060180Y-7152640D01*
X8978900Y-7211060D01*
X8900160Y-7269480D01*
X8821420Y-7330440D01*
X8745220Y-7391400D01*
X8669020Y-7454900D01*
X8597900Y-7518400D01*
X8524240Y-7584440D01*
X8453120Y-7653020D01*
X8384540Y-7721600D01*
X8315960Y-7790180D01*
X8247380Y-7861300D01*
X8178800Y-7934960D01*
X8112760Y-8008620D01*
X8082280Y-8044180D01*
X8138160Y-8084820D01*
X8188960Y-8128000D01*
X8242300Y-8171180D01*
X8298180Y-8224520D01*
X8348980Y-8280400D01*
X8399780Y-8336280D01*
X8453120Y-8412480D01*
X8501380Y-8354060D01*
X8569960Y-8280400D01*
X8638540Y-8206740D01*
X8707120Y-8135620D01*
X8778240Y-8067040D01*
X8849360Y-7998460D01*
X8923020Y-7929880D01*
X8996680Y-7866380D01*
X9072880Y-7800340D01*
X9149080Y-7739380D01*
X9225280Y-7678420D01*
X9304020Y-7620000D01*
X9382760Y-7561580D01*
X9464040Y-7505700D01*
X9545320Y-7449820D01*
X9629140Y-7396480D01*
X9710420Y-7345680D01*
X9794240Y-7297420D01*
X9880600Y-7249160D01*
X9966960Y-7200900D01*
X10053320Y-7157720D01*
X10139680Y-7114540D01*
X10228580Y-7071360D01*
X10317480Y-7030720D01*
X10406380Y-6992620D01*
X10497820Y-6957060D01*
X10589260Y-6921500D01*
X10680700Y-6885940D01*
X10774680Y-6855460D01*
X10822940Y-6830060D01*
X10906760Y-6809740D01*
X10990580Y-6791960D01*
X11074400Y-6771640D01*
X11160760Y-6748780D01*
X11033760Y-6205220D01*
X11003280Y-6134100D01*
X10957560Y-6068060D01*
X10960100Y-6022340D01*
X10934700Y-5961380D01*
X10863580Y-5900420D01*
X10779760Y-5849620D01*
X10698480Y-5793740D01*
X10617200Y-5740400D01*
X10535920Y-5681980D01*
X10457180Y-5623560D01*
X10380980Y-5565140D01*
X10304780Y-5504180D01*
X10228580Y-5443220D01*
X10154920Y-5379720D01*
X10081260Y-5313680D01*
X10010140Y-5247640D01*
X9939020Y-5179060D01*
X9867900Y-5110480D01*
X9799320Y-5039360D01*
X9728200Y-4963160D01*
X9659620Y-4889500D01*
X9593580Y-4815840D01*
X9530080Y-4742180D01*
X9466580Y-4668520D01*
X9408160Y-4592320D01*
X9349740Y-4516120D01*
X9293860Y-4437380D01*
X9237980Y-4353560D01*
X9182100Y-4267200D01*
X9126220Y-4175760D01*
X9126220Y-4175760D01*
X9126220Y-4175760D01*
G37*
X9126220Y-4175760D02*
X9116060Y-4183380D01*
X9039860Y-4234180D01*
X8961120Y-4282440D01*
X8879840Y-4325620D01*
X8808720Y-4361180D01*
X8737600Y-4391660D01*
X8666480Y-4422140D01*
X8722360Y-4516120D01*
X8775700Y-4597400D01*
X8829040Y-4673600D01*
X8884920Y-4752340D01*
X8948420Y-4838700D01*
X9006840Y-4917440D01*
X9065260Y-4993640D01*
X9126220Y-5067300D01*
X9187180Y-5143500D01*
X9250680Y-5214620D01*
X9316720Y-5288280D01*
X9382760Y-5359400D01*
X9448800Y-5427980D01*
X9519920Y-5496560D01*
X9591040Y-5565140D01*
X9662160Y-5631180D01*
X9738360Y-5697220D01*
X9814560Y-5763260D01*
X9890760Y-5826760D01*
X9972040Y-5890260D01*
X10050780Y-5951220D01*
X10129520Y-6004560D01*
X10210800Y-6057900D01*
X10109200Y-6075680D01*
X10010140Y-6088380D01*
X9908540Y-6103620D01*
X9809480Y-6116320D01*
X9707880Y-6129020D01*
X9606280Y-6139180D01*
X9507220Y-6149340D01*
X9405620Y-6156960D01*
X9304020Y-6164580D01*
X9204960Y-6172200D01*
X9103360Y-6177280D01*
X9001760Y-6182360D01*
X8900160Y-6184900D01*
X8798560Y-6187440D01*
X8696960Y-6189980D01*
X8595360Y-6189980D01*
X8493760Y-6187440D01*
X8392160Y-6187440D01*
X8290560Y-6182360D01*
X8188960Y-6179820D01*
X8084820Y-6174740D01*
X7983220Y-6167120D01*
X7881620Y-6159500D01*
X7782560Y-6151880D01*
X7686040Y-6144260D01*
X7589520Y-6134100D01*
X7493000Y-6123940D01*
X7396480Y-6113780D01*
X7302500Y-6101080D01*
X7208520Y-6085840D01*
X7112000Y-6070600D01*
X7018020Y-6055360D01*
X6921500Y-6037580D01*
X6824980Y-6017260D01*
X6725920Y-5996940D01*
X6626860Y-5974080D01*
X6527800Y-5951220D01*
X6423660Y-5923280D01*
X6418580Y-6022340D01*
X6413500Y-6121400D01*
X6410960Y-6217920D01*
X6408420Y-6316980D01*
X6408420Y-6416040D01*
X6408420Y-6512560D01*
X6410960Y-6606540D01*
X6413500Y-6700520D01*
X6418580Y-6797040D01*
X6423660Y-6891020D01*
X6517640Y-6911340D01*
X6593840Y-6926580D01*
X6662420Y-6941820D01*
X6741160Y-6954520D01*
X6832600Y-6972300D01*
X6929120Y-6990080D01*
X7028180Y-7005320D01*
X7124700Y-7020560D01*
X7223760Y-7033260D01*
X7322820Y-7045960D01*
X7419340Y-7058660D01*
X7518400Y-7071360D01*
X7617460Y-7081520D01*
X7716520Y-7089140D01*
X7815580Y-7096760D01*
X7914640Y-7104380D01*
X8013700Y-7112000D01*
X8115300Y-7117080D01*
X8214360Y-7119620D01*
X8305800Y-7122160D01*
X8397240Y-7122160D01*
X8488680Y-7122160D01*
X8582660Y-7122160D01*
X8674100Y-7119620D01*
X8768080Y-7117080D01*
X8862060Y-7112000D01*
X8953500Y-7106920D01*
X9047480Y-7101840D01*
X9141460Y-7096760D01*
X9060180Y-7152640D01*
X8978900Y-7211060D01*
X8900160Y-7269480D01*
X8821420Y-7330440D01*
X8745220Y-7391400D01*
X8669020Y-7454900D01*
X8597900Y-7518400D01*
X8524240Y-7584440D01*
X8453120Y-7653020D01*
X8384540Y-7721600D01*
X8315960Y-7790180D01*
X8247380Y-7861300D01*
X8178800Y-7934960D01*
X8112760Y-8008620D01*
X8082280Y-8044180D01*
X8138160Y-8084820D01*
X8188960Y-8128000D01*
X8242300Y-8171180D01*
X8298180Y-8224520D01*
X8348980Y-8280400D01*
X8399780Y-8336280D01*
X8453120Y-8412480D01*
X8501380Y-8354060D01*
X8569960Y-8280400D01*
X8638540Y-8206740D01*
X8707120Y-8135620D01*
X8778240Y-8067040D01*
X8849360Y-7998460D01*
X8923020Y-7929880D01*
X8996680Y-7866380D01*
X9072880Y-7800340D01*
X9149080Y-7739380D01*
X9225280Y-7678420D01*
X9304020Y-7620000D01*
X9382760Y-7561580D01*
X9464040Y-7505700D01*
X9545320Y-7449820D01*
X9629140Y-7396480D01*
X9710420Y-7345680D01*
X9794240Y-7297420D01*
X9880600Y-7249160D01*
X9966960Y-7200900D01*
X10053320Y-7157720D01*
X10139680Y-7114540D01*
X10228580Y-7071360D01*
X10317480Y-7030720D01*
X10406380Y-6992620D01*
X10497820Y-6957060D01*
X10589260Y-6921500D01*
X10680700Y-6885940D01*
X10774680Y-6855460D01*
X10822940Y-6830060D01*
X10906760Y-6809740D01*
X10990580Y-6791960D01*
X11074400Y-6771640D01*
X11160760Y-6748780D01*
X11033760Y-6205220D01*
X11003280Y-6134100D01*
X10957560Y-6068060D01*
X10960100Y-6022340D01*
X10934700Y-5961380D01*
X10863580Y-5900420D01*
X10779760Y-5849620D01*
X10698480Y-5793740D01*
X10617200Y-5740400D01*
X10535920Y-5681980D01*
X10457180Y-5623560D01*
X10380980Y-5565140D01*
X10304780Y-5504180D01*
X10228580Y-5443220D01*
X10154920Y-5379720D01*
X10081260Y-5313680D01*
X10010140Y-5247640D01*
X9939020Y-5179060D01*
X9867900Y-5110480D01*
X9799320Y-5039360D01*
X9728200Y-4963160D01*
X9659620Y-4889500D01*
X9593580Y-4815840D01*
X9530080Y-4742180D01*
X9466580Y-4668520D01*
X9408160Y-4592320D01*
X9349740Y-4516120D01*
X9293860Y-4437380D01*
X9237980Y-4353560D01*
X9182100Y-4267200D01*
X9126220Y-4175760D01*
X9126220Y-4175760D01*
G36*
X1391920Y-2951480D02*
X1318260Y-2969260D01*
X1254760Y-2997200D01*
X1196340Y-3037840D01*
X769620Y-3401060D01*
X835660Y-3479800D01*
X899160Y-3558540D01*
X965200Y-3634740D01*
X1031240Y-3710940D01*
X1097280Y-3787140D01*
X1163320Y-3860800D01*
X1229360Y-3934460D01*
X1297940Y-4005580D01*
X1338580Y-4097020D01*
X1379220Y-4191000D01*
X1417320Y-4284980D01*
X1452880Y-4378960D01*
X1488440Y-4472940D01*
X1521460Y-4569460D01*
X1551940Y-4665980D01*
X1582420Y-4762500D01*
X1610360Y-4859020D01*
X1635760Y-4958080D01*
X1661160Y-5057140D01*
X1681480Y-5151120D01*
X1701800Y-5245100D01*
X1719580Y-5339080D01*
X1734820Y-5433060D01*
X1750060Y-5529580D01*
X1762760Y-5623560D01*
X1772920Y-5720080D01*
X1783080Y-5816600D01*
X1790700Y-5910580D01*
X1798320Y-6007100D01*
X1803400Y-6106160D01*
X1805940Y-6202680D01*
X1805940Y-6299200D01*
X1805940Y-6398260D01*
X1803400Y-6497320D01*
X1798320Y-6583680D01*
X1793240Y-6672580D01*
X1869440Y-6685280D01*
X1948180Y-6697980D01*
X2047240Y-6705600D01*
X2146300Y-6708140D01*
X2245360Y-6703060D01*
X2341880Y-6695440D01*
X2346960Y-6604000D01*
X2352040Y-6512560D01*
X2354580Y-6421120D01*
X2354580Y-6327140D01*
X2354580Y-6235700D01*
X2354580Y-6144260D01*
X2352040Y-6052820D01*
X2346960Y-5961380D01*
X2341880Y-5869940D01*
X2334260Y-5781040D01*
X2326640Y-5689600D01*
X2316480Y-5600700D01*
X2306320Y-5511800D01*
X2293620Y-5422900D01*
X2278380Y-5334000D01*
X2263140Y-5245100D01*
X2245360Y-5156200D01*
X2227580Y-5067300D01*
X2207260Y-4978400D01*
X2186940Y-4889500D01*
X2166620Y-4823460D01*
X2242820Y-4886960D01*
X2321560Y-4950460D01*
X2397760Y-5013960D01*
X2473960Y-5074920D01*
X2552700Y-5135880D01*
X2631440Y-5196840D01*
X2707640Y-5255260D01*
X2786380Y-5311140D01*
X2867660Y-5369560D01*
X2946400Y-5422900D01*
X3030220Y-5478780D01*
X3114040Y-5532120D01*
X3197860Y-5585460D01*
X3284220Y-5638800D01*
X3368040Y-5689600D01*
X3454400Y-5740400D01*
X3540760Y-5788660D01*
X3627120Y-5836920D01*
X3713480Y-5885180D01*
X3802380Y-5930900D01*
X3888740Y-5976620D01*
X3977640Y-6022340D01*
X4066540Y-6065520D01*
X4155440Y-6108700D01*
X4249420Y-6151880D01*
X4335780Y-6189980D01*
X4417060Y-6220460D01*
X4495800Y-6250940D01*
X4574540Y-6278880D01*
X4653280Y-6306820D01*
X4737100Y-6337300D01*
X4828540Y-6367780D01*
X4927600Y-6403340D01*
X4927600Y-6304280D01*
X4927600Y-6202680D01*
X4930140Y-6103620D01*
X4932680Y-6004560D01*
X4937760Y-5908040D01*
X4945380Y-5808980D01*
X4955540Y-5715000D01*
X4965700Y-5621020D01*
X4978400Y-5529580D01*
X4993640Y-5440680D01*
X4894580Y-5400040D01*
X4800600Y-5361940D01*
X4709160Y-5321300D01*
X4617720Y-5280660D01*
X4528820Y-5240020D01*
X4442460Y-5199380D01*
X4356100Y-5158740D01*
X4272280Y-5115560D01*
X4188460Y-5072380D01*
X4104640Y-5026660D01*
X4020820Y-4980940D01*
X3937000Y-4932680D01*
X3853180Y-4884420D01*
X3769360Y-4833620D01*
X3685540Y-4782820D01*
X3599180Y-4726940D01*
X3510280Y-4671060D01*
X3429000Y-4617720D01*
X3350260Y-4564380D01*
X3268980Y-4508500D01*
X3190240Y-4452620D01*
X3114040Y-4396740D01*
X3035300Y-4338320D01*
X2959100Y-4279900D01*
X2882900Y-4221480D01*
X2806700Y-4163060D01*
X2730500Y-4102100D01*
X2656840Y-4041140D01*
X2583180Y-3980180D01*
X2509520Y-3916680D01*
X2435860Y-3853180D01*
X2364740Y-3789680D01*
X2456180Y-3797300D01*
X2547620Y-3802380D01*
X2636520Y-3804920D01*
X2727960Y-3807460D01*
X2816860Y-3810000D01*
X2908300Y-3807460D01*
X2994660Y-3804920D01*
X3083560Y-3802380D01*
X3180080Y-3794760D01*
X3276600Y-3787140D01*
X3373120Y-3776980D01*
X3469640Y-3764280D01*
X3566160Y-3749040D01*
X3660140Y-3733800D01*
X3754120Y-3716020D01*
X3850640Y-3698240D01*
X3939540Y-3677920D01*
X4028440Y-3655060D01*
X4119880Y-3632200D01*
X4208780Y-3606800D01*
X4297680Y-3578860D01*
X4389120Y-3550920D01*
X4478020Y-3522980D01*
X4478020Y-3515360D01*
X4472940Y-3416300D01*
X4460240Y-3317240D01*
X4442460Y-3218180D01*
X4414520Y-3119120D01*
X4396740Y-3063240D01*
X4373880Y-3007360D01*
X4284980Y-3037840D01*
X4193540Y-3065780D01*
X4099560Y-3093720D01*
X4008120Y-3119120D01*
X3916680Y-3141980D01*
X3825240Y-3164840D01*
X3731260Y-3185160D01*
X3639820Y-3202940D01*
X3545840Y-3220720D01*
X3454400Y-3235960D01*
X3360420Y-3248660D01*
X3266440Y-3261360D01*
X3175000Y-3271520D01*
X3081020Y-3279140D01*
X2979420Y-3286760D01*
X2877820Y-3291840D01*
X2776220Y-3294380D01*
X2674620Y-3294380D01*
X2575560Y-3291840D01*
X2473960Y-3289300D01*
X2372360Y-3284220D01*
X2270760Y-3279140D01*
X2171700Y-3268980D01*
X2070100Y-3258820D01*
X1968500Y-3246120D01*
X1869440Y-3230880D01*
X1767840Y-3215640D01*
X1704340Y-3149600D01*
X1638300Y-3083560D01*
X1549400Y-3002280D01*
X1468120Y-2959100D01*
X1391920Y-2951480D01*
X1391920Y-2951480D01*
X1391920Y-2951480D01*
G37*
X1391920Y-2951480D02*
X1318260Y-2969260D01*
X1254760Y-2997200D01*
X1196340Y-3037840D01*
X769620Y-3401060D01*
X835660Y-3479800D01*
X899160Y-3558540D01*
X965200Y-3634740D01*
X1031240Y-3710940D01*
X1097280Y-3787140D01*
X1163320Y-3860800D01*
X1229360Y-3934460D01*
X1297940Y-4005580D01*
X1338580Y-4097020D01*
X1379220Y-4191000D01*
X1417320Y-4284980D01*
X1452880Y-4378960D01*
X1488440Y-4472940D01*
X1521460Y-4569460D01*
X1551940Y-4665980D01*
X1582420Y-4762500D01*
X1610360Y-4859020D01*
X1635760Y-4958080D01*
X1661160Y-5057140D01*
X1681480Y-5151120D01*
X1701800Y-5245100D01*
X1719580Y-5339080D01*
X1734820Y-5433060D01*
X1750060Y-5529580D01*
X1762760Y-5623560D01*
X1772920Y-5720080D01*
X1783080Y-5816600D01*
X1790700Y-5910580D01*
X1798320Y-6007100D01*
X1803400Y-6106160D01*
X1805940Y-6202680D01*
X1805940Y-6299200D01*
X1805940Y-6398260D01*
X1803400Y-6497320D01*
X1798320Y-6583680D01*
X1793240Y-6672580D01*
X1869440Y-6685280D01*
X1948180Y-6697980D01*
X2047240Y-6705600D01*
X2146300Y-6708140D01*
X2245360Y-6703060D01*
X2341880Y-6695440D01*
X2346960Y-6604000D01*
X2352040Y-6512560D01*
X2354580Y-6421120D01*
X2354580Y-6327140D01*
X2354580Y-6235700D01*
X2354580Y-6144260D01*
X2352040Y-6052820D01*
X2346960Y-5961380D01*
X2341880Y-5869940D01*
X2334260Y-5781040D01*
X2326640Y-5689600D01*
X2316480Y-5600700D01*
X2306320Y-5511800D01*
X2293620Y-5422900D01*
X2278380Y-5334000D01*
X2263140Y-5245100D01*
X2245360Y-5156200D01*
X2227580Y-5067300D01*
X2207260Y-4978400D01*
X2186940Y-4889500D01*
X2166620Y-4823460D01*
X2242820Y-4886960D01*
X2321560Y-4950460D01*
X2397760Y-5013960D01*
X2473960Y-5074920D01*
X2552700Y-5135880D01*
X2631440Y-5196840D01*
X2707640Y-5255260D01*
X2786380Y-5311140D01*
X2867660Y-5369560D01*
X2946400Y-5422900D01*
X3030220Y-5478780D01*
X3114040Y-5532120D01*
X3197860Y-5585460D01*
X3284220Y-5638800D01*
X3368040Y-5689600D01*
X3454400Y-5740400D01*
X3540760Y-5788660D01*
X3627120Y-5836920D01*
X3713480Y-5885180D01*
X3802380Y-5930900D01*
X3888740Y-5976620D01*
X3977640Y-6022340D01*
X4066540Y-6065520D01*
X4155440Y-6108700D01*
X4249420Y-6151880D01*
X4335780Y-6189980D01*
X4417060Y-6220460D01*
X4495800Y-6250940D01*
X4574540Y-6278880D01*
X4653280Y-6306820D01*
X4737100Y-6337300D01*
X4828540Y-6367780D01*
X4927600Y-6403340D01*
X4927600Y-6304280D01*
X4927600Y-6202680D01*
X4930140Y-6103620D01*
X4932680Y-6004560D01*
X4937760Y-5908040D01*
X4945380Y-5808980D01*
X4955540Y-5715000D01*
X4965700Y-5621020D01*
X4978400Y-5529580D01*
X4993640Y-5440680D01*
X4894580Y-5400040D01*
X4800600Y-5361940D01*
X4709160Y-5321300D01*
X4617720Y-5280660D01*
X4528820Y-5240020D01*
X4442460Y-5199380D01*
X4356100Y-5158740D01*
X4272280Y-5115560D01*
X4188460Y-5072380D01*
X4104640Y-5026660D01*
X4020820Y-4980940D01*
X3937000Y-4932680D01*
X3853180Y-4884420D01*
X3769360Y-4833620D01*
X3685540Y-4782820D01*
X3599180Y-4726940D01*
X3510280Y-4671060D01*
X3429000Y-4617720D01*
X3350260Y-4564380D01*
X3268980Y-4508500D01*
X3190240Y-4452620D01*
X3114040Y-4396740D01*
X3035300Y-4338320D01*
X2959100Y-4279900D01*
X2882900Y-4221480D01*
X2806700Y-4163060D01*
X2730500Y-4102100D01*
X2656840Y-4041140D01*
X2583180Y-3980180D01*
X2509520Y-3916680D01*
X2435860Y-3853180D01*
X2364740Y-3789680D01*
X2456180Y-3797300D01*
X2547620Y-3802380D01*
X2636520Y-3804920D01*
X2727960Y-3807460D01*
X2816860Y-3810000D01*
X2908300Y-3807460D01*
X2994660Y-3804920D01*
X3083560Y-3802380D01*
X3180080Y-3794760D01*
X3276600Y-3787140D01*
X3373120Y-3776980D01*
X3469640Y-3764280D01*
X3566160Y-3749040D01*
X3660140Y-3733800D01*
X3754120Y-3716020D01*
X3850640Y-3698240D01*
X3939540Y-3677920D01*
X4028440Y-3655060D01*
X4119880Y-3632200D01*
X4208780Y-3606800D01*
X4297680Y-3578860D01*
X4389120Y-3550920D01*
X4478020Y-3522980D01*
X4478020Y-3515360D01*
X4472940Y-3416300D01*
X4460240Y-3317240D01*
X4442460Y-3218180D01*
X4414520Y-3119120D01*
X4396740Y-3063240D01*
X4373880Y-3007360D01*
X4284980Y-3037840D01*
X4193540Y-3065780D01*
X4099560Y-3093720D01*
X4008120Y-3119120D01*
X3916680Y-3141980D01*
X3825240Y-3164840D01*
X3731260Y-3185160D01*
X3639820Y-3202940D01*
X3545840Y-3220720D01*
X3454400Y-3235960D01*
X3360420Y-3248660D01*
X3266440Y-3261360D01*
X3175000Y-3271520D01*
X3081020Y-3279140D01*
X2979420Y-3286760D01*
X2877820Y-3291840D01*
X2776220Y-3294380D01*
X2674620Y-3294380D01*
X2575560Y-3291840D01*
X2473960Y-3289300D01*
X2372360Y-3284220D01*
X2270760Y-3279140D01*
X2171700Y-3268980D01*
X2070100Y-3258820D01*
X1968500Y-3246120D01*
X1869440Y-3230880D01*
X1767840Y-3215640D01*
X1704340Y-3149600D01*
X1638300Y-3083560D01*
X1549400Y-3002280D01*
X1468120Y-2959100D01*
X1391920Y-2951480D01*
X1391920Y-2951480D01*
G36*
X7866380Y-2794000D02*
X7772400Y-2811780D01*
X7716520Y-2844800D01*
X7665720Y-2910840D01*
X7625080Y-3007360D01*
X7597140Y-3101340D01*
X7564120Y-3195320D01*
X7533640Y-3286760D01*
X7500620Y-3380740D01*
X7467600Y-3472180D01*
X7432040Y-3563620D01*
X7396480Y-3655060D01*
X7358380Y-3743960D01*
X7320280Y-3835400D01*
X7282180Y-3924300D01*
X7241540Y-4013200D01*
X7200900Y-4102100D01*
X7160260Y-4188460D01*
X7117080Y-4277360D01*
X7071360Y-4363720D01*
X7028180Y-4450080D01*
X6982460Y-4536440D01*
X6934200Y-4622800D01*
X6885940Y-4706620D01*
X6837680Y-4792980D01*
X6786880Y-4876800D01*
X6736080Y-4960620D01*
X6682740Y-5044440D01*
X6629400Y-5128260D01*
X6573520Y-5209540D01*
X6515100Y-5293360D01*
X6459220Y-5374640D01*
X6449060Y-5468620D01*
X6441440Y-5562600D01*
X6433820Y-5659120D01*
X6525260Y-5684520D01*
X6619240Y-5709920D01*
X6710680Y-5730240D01*
X6802120Y-5745480D01*
X6896100Y-5760720D01*
X6987540Y-5770880D01*
X7078980Y-5781040D01*
X7172960Y-5788660D01*
X7223760Y-5717540D01*
X7272020Y-5643880D01*
X7320280Y-5570220D01*
X7368540Y-5496560D01*
X7416800Y-5420360D01*
X7462520Y-5344160D01*
X7510780Y-5262880D01*
X7556500Y-5181600D01*
X7602220Y-5097780D01*
X7647940Y-5016500D01*
X7691120Y-4930140D01*
X7734300Y-4846320D01*
X7777480Y-4759960D01*
X7820660Y-4673600D01*
X7861300Y-4584700D01*
X7901940Y-4495800D01*
X7940040Y-4406900D01*
X7978140Y-4318000D01*
X8016240Y-4226560D01*
X8051800Y-4140200D01*
X8084820Y-4051300D01*
X8117840Y-3964940D01*
X8150860Y-3876040D01*
X8181340Y-3784600D01*
X8211820Y-3693160D01*
X8242300Y-3601720D01*
X8272780Y-3510280D01*
X8300720Y-3416300D01*
X8328660Y-3322320D01*
X8354060Y-3225800D01*
X8382000Y-3131820D01*
X8407400Y-3032760D01*
X8432800Y-2936240D01*
X7957820Y-2806700D01*
X7866380Y-2794000D01*
X7866380Y-2794000D01*
X7866380Y-2794000D01*
G37*
X7866380Y-2794000D02*
X7772400Y-2811780D01*
X7716520Y-2844800D01*
X7665720Y-2910840D01*
X7625080Y-3007360D01*
X7597140Y-3101340D01*
X7564120Y-3195320D01*
X7533640Y-3286760D01*
X7500620Y-3380740D01*
X7467600Y-3472180D01*
X7432040Y-3563620D01*
X7396480Y-3655060D01*
X7358380Y-3743960D01*
X7320280Y-3835400D01*
X7282180Y-3924300D01*
X7241540Y-4013200D01*
X7200900Y-4102100D01*
X7160260Y-4188460D01*
X7117080Y-4277360D01*
X7071360Y-4363720D01*
X7028180Y-4450080D01*
X6982460Y-4536440D01*
X6934200Y-4622800D01*
X6885940Y-4706620D01*
X6837680Y-4792980D01*
X6786880Y-4876800D01*
X6736080Y-4960620D01*
X6682740Y-5044440D01*
X6629400Y-5128260D01*
X6573520Y-5209540D01*
X6515100Y-5293360D01*
X6459220Y-5374640D01*
X6449060Y-5468620D01*
X6441440Y-5562600D01*
X6433820Y-5659120D01*
X6525260Y-5684520D01*
X6619240Y-5709920D01*
X6710680Y-5730240D01*
X6802120Y-5745480D01*
X6896100Y-5760720D01*
X6987540Y-5770880D01*
X7078980Y-5781040D01*
X7172960Y-5788660D01*
X7223760Y-5717540D01*
X7272020Y-5643880D01*
X7320280Y-5570220D01*
X7368540Y-5496560D01*
X7416800Y-5420360D01*
X7462520Y-5344160D01*
X7510780Y-5262880D01*
X7556500Y-5181600D01*
X7602220Y-5097780D01*
X7647940Y-5016500D01*
X7691120Y-4930140D01*
X7734300Y-4846320D01*
X7777480Y-4759960D01*
X7820660Y-4673600D01*
X7861300Y-4584700D01*
X7901940Y-4495800D01*
X7940040Y-4406900D01*
X7978140Y-4318000D01*
X8016240Y-4226560D01*
X8051800Y-4140200D01*
X8084820Y-4051300D01*
X8117840Y-3964940D01*
X8150860Y-3876040D01*
X8181340Y-3784600D01*
X8211820Y-3693160D01*
X8242300Y-3601720D01*
X8272780Y-3510280D01*
X8300720Y-3416300D01*
X8328660Y-3322320D01*
X8354060Y-3225800D01*
X8382000Y-3131820D01*
X8407400Y-3032760D01*
X8432800Y-2936240D01*
X7957820Y-2806700D01*
X7866380Y-2794000D01*
X7866380Y-2794000D01*
G36*
X6837680Y-919480D02*
X6784340Y-1003300D01*
X6731000Y-1087120D01*
X6680200Y-1170940D01*
X6629400Y-1254760D01*
X6581140Y-1338580D01*
X6532880Y-1422400D01*
X6484620Y-1506220D01*
X6438900Y-1590040D01*
X6393180Y-1673860D01*
X6350000Y-1757680D01*
X6304280Y-1841500D01*
X6238240Y-1905000D01*
X6169660Y-1965960D01*
X6098540Y-2026920D01*
X6027420Y-2087880D01*
X5956300Y-2146300D01*
X5882640Y-2202180D01*
X5808980Y-2260600D01*
X5735320Y-2313940D01*
X5659120Y-2369820D01*
X5572760Y-2425700D01*
X5488940Y-2479040D01*
X5407660Y-2529840D01*
X5328920Y-2575560D01*
X5247640Y-2621280D01*
X5168900Y-2661920D01*
X5087620Y-2700020D01*
X5006340Y-2738120D01*
X4919980Y-2776220D01*
X4831080Y-2811780D01*
X4737100Y-2849880D01*
X4638040Y-2887980D01*
X4660900Y-2946400D01*
X4681220Y-3007360D01*
X4701540Y-3081020D01*
X4716780Y-3154680D01*
X4732020Y-3228340D01*
X4742180Y-3317240D01*
X4747260Y-3403600D01*
X4843780Y-3370580D01*
X4927600Y-3340100D01*
X5006340Y-3314700D01*
X5080000Y-3286760D01*
X5156200Y-3256280D01*
X5234940Y-3220720D01*
X5326380Y-3177540D01*
X5412740Y-3131820D01*
X5496560Y-3083560D01*
X5582920Y-3035300D01*
X5666740Y-2984500D01*
X5748020Y-2931160D01*
X5831840Y-2877820D01*
X5796280Y-2969260D01*
X5763260Y-3060700D01*
X5730240Y-3152140D01*
X5697220Y-3243580D01*
X5666740Y-3337560D01*
X5636260Y-3429000D01*
X5608320Y-3520440D01*
X5580380Y-3611880D01*
X5554980Y-3708400D01*
X5529580Y-3804920D01*
X5504180Y-3901440D01*
X5481320Y-3997960D01*
X5458460Y-4094480D01*
X5435600Y-4191000D01*
X5415280Y-4287520D01*
X5394960Y-4386580D01*
X5377180Y-4483100D01*
X5359400Y-4579620D01*
X5341620Y-4678680D01*
X5326380Y-4775200D01*
X5313680Y-4874260D01*
X5298440Y-4970780D01*
X5288280Y-5069840D01*
X5275580Y-5168900D01*
X5265420Y-5270500D01*
X5257800Y-5369560D01*
X5247640Y-5468620D01*
X5240020Y-5570220D01*
X5234940Y-5669280D01*
X5229860Y-5770880D01*
X5224780Y-5872480D01*
X5219700Y-5974080D01*
X5217160Y-6075680D01*
X5214620Y-6177280D01*
X5214620Y-6278880D01*
X5214620Y-6380480D01*
X5214620Y-6484620D01*
X5214620Y-6586220D01*
X5217160Y-6687820D01*
X5219700Y-6789420D01*
X5224780Y-6888480D01*
X5229860Y-6990080D01*
X5234940Y-7091680D01*
X5240020Y-7190740D01*
X5247640Y-7289800D01*
X5257800Y-7388860D01*
X5265420Y-7490460D01*
X5275580Y-7586980D01*
X5288280Y-7686040D01*
X5298440Y-7785100D01*
X5313680Y-7881620D01*
X5326380Y-7980680D01*
X5341620Y-8079740D01*
X5359400Y-8176260D01*
X5377180Y-8272780D01*
X5394960Y-8371840D01*
X5415280Y-8468360D01*
X5435600Y-8564880D01*
X5458460Y-8661400D01*
X5481320Y-8760460D01*
X5504180Y-8856980D01*
X5529580Y-8953500D01*
X5554980Y-9050020D01*
X5580380Y-9146540D01*
X5608320Y-9232900D01*
X5633720Y-9321800D01*
X5664200Y-9408160D01*
X5692140Y-9497060D01*
X5722620Y-9583420D01*
X5755640Y-9672320D01*
X5788660Y-9758680D01*
X5821680Y-9845040D01*
X5854700Y-9933940D01*
X5890260Y-10020300D01*
X5925820Y-10109200D01*
X5900420Y-10088880D01*
X5816600Y-10033000D01*
X5732780Y-9977120D01*
X5648960Y-9923780D01*
X5565140Y-9872980D01*
X5478780Y-9822180D01*
X5392420Y-9773920D01*
X5303520Y-9728200D01*
X5217160Y-9682480D01*
X5133340Y-9641840D01*
X5049520Y-9603740D01*
X4965700Y-9565640D01*
X4879340Y-9530080D01*
X4792980Y-9494520D01*
X4706620Y-9461500D01*
X4681220Y-9545320D01*
X4650740Y-9629140D01*
X4620260Y-9710420D01*
X4587240Y-9791700D01*
X4554220Y-9872980D01*
X4518660Y-9951720D01*
X4610100Y-9989820D01*
X4701540Y-10027920D01*
X4792980Y-10068560D01*
X4881880Y-10109200D01*
X4968240Y-10152380D01*
X5054600Y-10198100D01*
X5140960Y-10243820D01*
X5227320Y-10289540D01*
X5311140Y-10340340D01*
X5394960Y-10388600D01*
X5476240Y-10441940D01*
X5557520Y-10495280D01*
X5641340Y-10553700D01*
X5722620Y-10612120D01*
X5803900Y-10673080D01*
X5882640Y-10734040D01*
X5961380Y-10797540D01*
X6040120Y-10863580D01*
X6116320Y-10929620D01*
X6189980Y-10995660D01*
X6263640Y-11066780D01*
X6337300Y-11135360D01*
X6408420Y-11206480D01*
X6477000Y-11280140D01*
X6545580Y-11353800D01*
X6593840Y-11435080D01*
X6639560Y-11513820D01*
X6687820Y-11595100D01*
X6736080Y-11676380D01*
X6786880Y-11755120D01*
X6837680Y-11836400D01*
X7315200Y-11549380D01*
X7371080Y-11503660D01*
X7419340Y-11447780D01*
X7457440Y-11381740D01*
X7472680Y-11308080D01*
X7457440Y-11216640D01*
X7406640Y-11107420D01*
X7368540Y-11036300D01*
X7332980Y-10967720D01*
X7294880Y-10896600D01*
X7259320Y-10825480D01*
X7277100Y-10782300D01*
X7297420Y-10685780D01*
X7320280Y-10591800D01*
X7345680Y-10495280D01*
X7371080Y-10401300D01*
X7399020Y-10307320D01*
X7429500Y-10215880D01*
X7459980Y-10121900D01*
X7493000Y-10030460D01*
X7528560Y-9939020D01*
X7564120Y-9847580D01*
X7602220Y-9758680D01*
X7642860Y-9669780D01*
X7683500Y-9580880D01*
X7726680Y-9491980D01*
X7777480Y-9395460D01*
X7823200Y-9306560D01*
X7866380Y-9225280D01*
X7909560Y-9149080D01*
X7952740Y-9075420D01*
X7998460Y-9004300D01*
X8049260Y-8930640D01*
X8102600Y-8856980D01*
X8163560Y-8775700D01*
X8234680Y-8691880D01*
X8183880Y-8625840D01*
X8133080Y-8559800D01*
X8077200Y-8498840D01*
X8018780Y-8440420D01*
X7945120Y-8376920D01*
X7866380Y-8315960D01*
X7790180Y-8407400D01*
X7741920Y-8468360D01*
X7693660Y-8529320D01*
X7627620Y-8623300D01*
X7576820Y-8704580D01*
X7523480Y-8785860D01*
X7472680Y-8867140D01*
X7424420Y-8950960D01*
X7376160Y-9034780D01*
X7330440Y-9118600D01*
X7287260Y-9204960D01*
X7244080Y-9293860D01*
X7200900Y-9382760D01*
X7162800Y-9471660D01*
X7124700Y-9563100D01*
X7086600Y-9654540D01*
X7051040Y-9748520D01*
X7018020Y-9842500D01*
X6985000Y-9939020D01*
X6954520Y-10035540D01*
X6941820Y-10086340D01*
X6929120Y-10137140D01*
X6891020Y-10045700D01*
X6852920Y-9954260D01*
X6814820Y-9862820D01*
X6779260Y-9771380D01*
X6743700Y-9679940D01*
X6710680Y-9588500D01*
X6677660Y-9494520D01*
X6644640Y-9400540D01*
X6611620Y-9306560D01*
X6581140Y-9212580D01*
X6553200Y-9118600D01*
X6522720Y-9024620D01*
X6497320Y-8928100D01*
X6469380Y-8834120D01*
X6443980Y-8737600D01*
X6421120Y-8643620D01*
X6398260Y-8547100D01*
X6375400Y-8450580D01*
X6355080Y-8354060D01*
X6334760Y-8257540D01*
X6316980Y-8161020D01*
X6299200Y-8064500D01*
X6281420Y-7967980D01*
X6266180Y-7868920D01*
X6250940Y-7772400D01*
X6238240Y-7675880D01*
X6225540Y-7576820D01*
X6212840Y-7477760D01*
X6202680Y-7378700D01*
X6192520Y-7282180D01*
X6184900Y-7183120D01*
X6174740Y-7081520D01*
X6169660Y-6982460D01*
X6164580Y-6883400D01*
X6159500Y-6784340D01*
X6154420Y-6682740D01*
X6151880Y-6583680D01*
X6151880Y-6482080D01*
X6151880Y-6380480D01*
X6151880Y-6278880D01*
X6151880Y-6179820D01*
X6154420Y-6078220D01*
X6159500Y-5976620D01*
X6164580Y-5877560D01*
X6169660Y-5775960D01*
X6174740Y-5676900D01*
X6184900Y-5577840D01*
X6192520Y-5476240D01*
X6202680Y-5377180D01*
X6212840Y-5278120D01*
X6225540Y-5181600D01*
X6238240Y-5082540D01*
X6250940Y-4983480D01*
X6266180Y-4884420D01*
X6281420Y-4787900D01*
X6299200Y-4688840D01*
X6316980Y-4592320D01*
X6334760Y-4495800D01*
X6355080Y-4399280D01*
X6375400Y-4302760D01*
X6398260Y-4206240D01*
X6421120Y-4109720D01*
X6443980Y-4013200D01*
X6469380Y-3916680D01*
X6497320Y-3822700D01*
X6522720Y-3728720D01*
X6550660Y-3634740D01*
X6581140Y-3540760D01*
X6611620Y-3446780D01*
X6642100Y-3352800D01*
X6675120Y-3261360D01*
X6708140Y-3167380D01*
X6741160Y-3075940D01*
X6776720Y-2984500D01*
X6812280Y-2893060D01*
X6847840Y-2801620D01*
X6885940Y-2710180D01*
X6924040Y-2621280D01*
X6962140Y-2529840D01*
X7002780Y-2440940D01*
X7045960Y-2352040D01*
X7086600Y-2263140D01*
X7129780Y-2174240D01*
X7172960Y-2085340D01*
X7218680Y-1996440D01*
X7264400Y-1910080D01*
X7312660Y-1823720D01*
X7358380Y-1734820D01*
X7406640Y-1648460D01*
X7457440Y-1539240D01*
X7472680Y-1447800D01*
X7457440Y-1374140D01*
X7419340Y-1310640D01*
X7371080Y-1257300D01*
X7315200Y-1214120D01*
X6837680Y-919480D01*
X6837680Y-919480D01*
X6837680Y-919480D01*
G37*
X6837680Y-919480D02*
X6784340Y-1003300D01*
X6731000Y-1087120D01*
X6680200Y-1170940D01*
X6629400Y-1254760D01*
X6581140Y-1338580D01*
X6532880Y-1422400D01*
X6484620Y-1506220D01*
X6438900Y-1590040D01*
X6393180Y-1673860D01*
X6350000Y-1757680D01*
X6304280Y-1841500D01*
X6238240Y-1905000D01*
X6169660Y-1965960D01*
X6098540Y-2026920D01*
X6027420Y-2087880D01*
X5956300Y-2146300D01*
X5882640Y-2202180D01*
X5808980Y-2260600D01*
X5735320Y-2313940D01*
X5659120Y-2369820D01*
X5572760Y-2425700D01*
X5488940Y-2479040D01*
X5407660Y-2529840D01*
X5328920Y-2575560D01*
X5247640Y-2621280D01*
X5168900Y-2661920D01*
X5087620Y-2700020D01*
X5006340Y-2738120D01*
X4919980Y-2776220D01*
X4831080Y-2811780D01*
X4737100Y-2849880D01*
X4638040Y-2887980D01*
X4660900Y-2946400D01*
X4681220Y-3007360D01*
X4701540Y-3081020D01*
X4716780Y-3154680D01*
X4732020Y-3228340D01*
X4742180Y-3317240D01*
X4747260Y-3403600D01*
X4843780Y-3370580D01*
X4927600Y-3340100D01*
X5006340Y-3314700D01*
X5080000Y-3286760D01*
X5156200Y-3256280D01*
X5234940Y-3220720D01*
X5326380Y-3177540D01*
X5412740Y-3131820D01*
X5496560Y-3083560D01*
X5582920Y-3035300D01*
X5666740Y-2984500D01*
X5748020Y-2931160D01*
X5831840Y-2877820D01*
X5796280Y-2969260D01*
X5763260Y-3060700D01*
X5730240Y-3152140D01*
X5697220Y-3243580D01*
X5666740Y-3337560D01*
X5636260Y-3429000D01*
X5608320Y-3520440D01*
X5580380Y-3611880D01*
X5554980Y-3708400D01*
X5529580Y-3804920D01*
X5504180Y-3901440D01*
X5481320Y-3997960D01*
X5458460Y-4094480D01*
X5435600Y-4191000D01*
X5415280Y-4287520D01*
X5394960Y-4386580D01*
X5377180Y-4483100D01*
X5359400Y-4579620D01*
X5341620Y-4678680D01*
X5326380Y-4775200D01*
X5313680Y-4874260D01*
X5298440Y-4970780D01*
X5288280Y-5069840D01*
X5275580Y-5168900D01*
X5265420Y-5270500D01*
X5257800Y-5369560D01*
X5247640Y-5468620D01*
X5240020Y-5570220D01*
X5234940Y-5669280D01*
X5229860Y-5770880D01*
X5224780Y-5872480D01*
X5219700Y-5974080D01*
X5217160Y-6075680D01*
X5214620Y-6177280D01*
X5214620Y-6278880D01*
X5214620Y-6380480D01*
X5214620Y-6484620D01*
X5214620Y-6586220D01*
X5217160Y-6687820D01*
X5219700Y-6789420D01*
X5224780Y-6888480D01*
X5229860Y-6990080D01*
X5234940Y-7091680D01*
X5240020Y-7190740D01*
X5247640Y-7289800D01*
X5257800Y-7388860D01*
X5265420Y-7490460D01*
X5275580Y-7586980D01*
X5288280Y-7686040D01*
X5298440Y-7785100D01*
X5313680Y-7881620D01*
X5326380Y-7980680D01*
X5341620Y-8079740D01*
X5359400Y-8176260D01*
X5377180Y-8272780D01*
X5394960Y-8371840D01*
X5415280Y-8468360D01*
X5435600Y-8564880D01*
X5458460Y-8661400D01*
X5481320Y-8760460D01*
X5504180Y-8856980D01*
X5529580Y-8953500D01*
X5554980Y-9050020D01*
X5580380Y-9146540D01*
X5608320Y-9232900D01*
X5633720Y-9321800D01*
X5664200Y-9408160D01*
X5692140Y-9497060D01*
X5722620Y-9583420D01*
X5755640Y-9672320D01*
X5788660Y-9758680D01*
X5821680Y-9845040D01*
X5854700Y-9933940D01*
X5890260Y-10020300D01*
X5925820Y-10109200D01*
X5900420Y-10088880D01*
X5816600Y-10033000D01*
X5732780Y-9977120D01*
X5648960Y-9923780D01*
X5565140Y-9872980D01*
X5478780Y-9822180D01*
X5392420Y-9773920D01*
X5303520Y-9728200D01*
X5217160Y-9682480D01*
X5133340Y-9641840D01*
X5049520Y-9603740D01*
X4965700Y-9565640D01*
X4879340Y-9530080D01*
X4792980Y-9494520D01*
X4706620Y-9461500D01*
X4681220Y-9545320D01*
X4650740Y-9629140D01*
X4620260Y-9710420D01*
X4587240Y-9791700D01*
X4554220Y-9872980D01*
X4518660Y-9951720D01*
X4610100Y-9989820D01*
X4701540Y-10027920D01*
X4792980Y-10068560D01*
X4881880Y-10109200D01*
X4968240Y-10152380D01*
X5054600Y-10198100D01*
X5140960Y-10243820D01*
X5227320Y-10289540D01*
X5311140Y-10340340D01*
X5394960Y-10388600D01*
X5476240Y-10441940D01*
X5557520Y-10495280D01*
X5641340Y-10553700D01*
X5722620Y-10612120D01*
X5803900Y-10673080D01*
X5882640Y-10734040D01*
X5961380Y-10797540D01*
X6040120Y-10863580D01*
X6116320Y-10929620D01*
X6189980Y-10995660D01*
X6263640Y-11066780D01*
X6337300Y-11135360D01*
X6408420Y-11206480D01*
X6477000Y-11280140D01*
X6545580Y-11353800D01*
X6593840Y-11435080D01*
X6639560Y-11513820D01*
X6687820Y-11595100D01*
X6736080Y-11676380D01*
X6786880Y-11755120D01*
X6837680Y-11836400D01*
X7315200Y-11549380D01*
X7371080Y-11503660D01*
X7419340Y-11447780D01*
X7457440Y-11381740D01*
X7472680Y-11308080D01*
X7457440Y-11216640D01*
X7406640Y-11107420D01*
X7368540Y-11036300D01*
X7332980Y-10967720D01*
X7294880Y-10896600D01*
X7259320Y-10825480D01*
X7277100Y-10782300D01*
X7297420Y-10685780D01*
X7320280Y-10591800D01*
X7345680Y-10495280D01*
X7371080Y-10401300D01*
X7399020Y-10307320D01*
X7429500Y-10215880D01*
X7459980Y-10121900D01*
X7493000Y-10030460D01*
X7528560Y-9939020D01*
X7564120Y-9847580D01*
X7602220Y-9758680D01*
X7642860Y-9669780D01*
X7683500Y-9580880D01*
X7726680Y-9491980D01*
X7777480Y-9395460D01*
X7823200Y-9306560D01*
X7866380Y-9225280D01*
X7909560Y-9149080D01*
X7952740Y-9075420D01*
X7998460Y-9004300D01*
X8049260Y-8930640D01*
X8102600Y-8856980D01*
X8163560Y-8775700D01*
X8234680Y-8691880D01*
X8183880Y-8625840D01*
X8133080Y-8559800D01*
X8077200Y-8498840D01*
X8018780Y-8440420D01*
X7945120Y-8376920D01*
X7866380Y-8315960D01*
X7790180Y-8407400D01*
X7741920Y-8468360D01*
X7693660Y-8529320D01*
X7627620Y-8623300D01*
X7576820Y-8704580D01*
X7523480Y-8785860D01*
X7472680Y-8867140D01*
X7424420Y-8950960D01*
X7376160Y-9034780D01*
X7330440Y-9118600D01*
X7287260Y-9204960D01*
X7244080Y-9293860D01*
X7200900Y-9382760D01*
X7162800Y-9471660D01*
X7124700Y-9563100D01*
X7086600Y-9654540D01*
X7051040Y-9748520D01*
X7018020Y-9842500D01*
X6985000Y-9939020D01*
X6954520Y-10035540D01*
X6941820Y-10086340D01*
X6929120Y-10137140D01*
X6891020Y-10045700D01*
X6852920Y-9954260D01*
X6814820Y-9862820D01*
X6779260Y-9771380D01*
X6743700Y-9679940D01*
X6710680Y-9588500D01*
X6677660Y-9494520D01*
X6644640Y-9400540D01*
X6611620Y-9306560D01*
X6581140Y-9212580D01*
X6553200Y-9118600D01*
X6522720Y-9024620D01*
X6497320Y-8928100D01*
X6469380Y-8834120D01*
X6443980Y-8737600D01*
X6421120Y-8643620D01*
X6398260Y-8547100D01*
X6375400Y-8450580D01*
X6355080Y-8354060D01*
X6334760Y-8257540D01*
X6316980Y-8161020D01*
X6299200Y-8064500D01*
X6281420Y-7967980D01*
X6266180Y-7868920D01*
X6250940Y-7772400D01*
X6238240Y-7675880D01*
X6225540Y-7576820D01*
X6212840Y-7477760D01*
X6202680Y-7378700D01*
X6192520Y-7282180D01*
X6184900Y-7183120D01*
X6174740Y-7081520D01*
X6169660Y-6982460D01*
X6164580Y-6883400D01*
X6159500Y-6784340D01*
X6154420Y-6682740D01*
X6151880Y-6583680D01*
X6151880Y-6482080D01*
X6151880Y-6380480D01*
X6151880Y-6278880D01*
X6151880Y-6179820D01*
X6154420Y-6078220D01*
X6159500Y-5976620D01*
X6164580Y-5877560D01*
X6169660Y-5775960D01*
X6174740Y-5676900D01*
X6184900Y-5577840D01*
X6192520Y-5476240D01*
X6202680Y-5377180D01*
X6212840Y-5278120D01*
X6225540Y-5181600D01*
X6238240Y-5082540D01*
X6250940Y-4983480D01*
X6266180Y-4884420D01*
X6281420Y-4787900D01*
X6299200Y-4688840D01*
X6316980Y-4592320D01*
X6334760Y-4495800D01*
X6355080Y-4399280D01*
X6375400Y-4302760D01*
X6398260Y-4206240D01*
X6421120Y-4109720D01*
X6443980Y-4013200D01*
X6469380Y-3916680D01*
X6497320Y-3822700D01*
X6522720Y-3728720D01*
X6550660Y-3634740D01*
X6581140Y-3540760D01*
X6611620Y-3446780D01*
X6642100Y-3352800D01*
X6675120Y-3261360D01*
X6708140Y-3167380D01*
X6741160Y-3075940D01*
X6776720Y-2984500D01*
X6812280Y-2893060D01*
X6847840Y-2801620D01*
X6885940Y-2710180D01*
X6924040Y-2621280D01*
X6962140Y-2529840D01*
X7002780Y-2440940D01*
X7045960Y-2352040D01*
X7086600Y-2263140D01*
X7129780Y-2174240D01*
X7172960Y-2085340D01*
X7218680Y-1996440D01*
X7264400Y-1910080D01*
X7312660Y-1823720D01*
X7358380Y-1734820D01*
X7406640Y-1648460D01*
X7457440Y-1539240D01*
X7472680Y-1447800D01*
X7457440Y-1374140D01*
X7419340Y-1310640D01*
X7371080Y-1257300D01*
X7315200Y-1214120D01*
X6837680Y-919480D01*
X6837680Y-919480D01*
D12*
X11170000Y-6400000D03*
X7270000Y-1030000D03*
X970000Y-9700000D03*
X970000Y-3080000D03*
X7270000Y-11750000D03*
M02*
