G04 #@! TF.FileFunction,Copper,L1,Top,Signal*
%FSLAX46Y46*%
G04 Gerber Fmt 4.6, Leading zero omitted, Abs format (unit mm)*
G04 Created by KiCad (PCBNEW 4.0.5+dfsg1-4) date Tue Feb 14 02:46:29 2017*
%MOMM*%
%LPD*%
G01*
G04 APERTURE LIST*
%ADD10C,0.100000*%
%ADD11C,1.600000*%
%ADD12R,1.198880X1.198880*%
%ADD13C,0.400000*%
%ADD14C,0.250000*%
%ADD15C,0.200000*%
G04 APERTURE END LIST*
D10*
D11*
X11170000Y-6400000D03*
X7270000Y-1030000D03*
X970000Y-9700000D03*
X970000Y-3080000D03*
X7270000Y-11750000D03*
D10*
G36*
X6033015Y-10159301D02*
X5662541Y-11299503D01*
X4522339Y-10929029D01*
X4892813Y-9788827D01*
X6033015Y-10159301D01*
X6033015Y-10159301D01*
G37*
G36*
X4037661Y-9510971D02*
X3667187Y-10651173D01*
X2526985Y-10280699D01*
X2897459Y-9140497D01*
X4037661Y-9510971D01*
X4037661Y-9510971D01*
G37*
G36*
X7336103Y-3038710D02*
X8306017Y-2334026D01*
X9010701Y-3303940D01*
X8040787Y-4008624D01*
X7336103Y-3038710D01*
X7336103Y-3038710D01*
G37*
G36*
X8569299Y-4736060D02*
X9539213Y-4031376D01*
X10243897Y-5001290D01*
X9273983Y-5705974D01*
X8569299Y-4736060D01*
X8569299Y-4736060D01*
G37*
G36*
X5672541Y-1480497D02*
X6043015Y-2620699D01*
X4902813Y-2991173D01*
X4532339Y-1850971D01*
X5672541Y-1480497D01*
X5672541Y-1480497D01*
G37*
G36*
X3677187Y-2128827D02*
X4047661Y-3269029D01*
X2907459Y-3639503D01*
X2536985Y-2499301D01*
X3677187Y-2128827D01*
X3677187Y-2128827D01*
G37*
D12*
X5530000Y-5340980D03*
X5530000Y-7439020D03*
X1500000Y-5340980D03*
X1500000Y-7439020D03*
D10*
G36*
X9273983Y-7074026D02*
X10243897Y-7778710D01*
X9539213Y-8748624D01*
X8569299Y-8043940D01*
X9273983Y-7074026D01*
X9273983Y-7074026D01*
G37*
G36*
X8040787Y-8771376D02*
X9010701Y-9476060D01*
X8306017Y-10445974D01*
X7336103Y-9741290D01*
X8040787Y-8771376D01*
X8040787Y-8771376D01*
G37*
D13*
X9406598Y-4868675D02*
X9600000Y-3300000D01*
X4300000Y-3700000D02*
X3292323Y-2884165D01*
X6500000Y-3000000D02*
X4300000Y-3700000D01*
X8300000Y-1800000D02*
X6500000Y-3000000D01*
X8700000Y-2000000D02*
X8300000Y-1800000D01*
X9600000Y-3300000D02*
X8700000Y-2000000D01*
D14*
X3577373Y-2791546D02*
X3577373Y-2877373D01*
X9406598Y-4868675D02*
X9429975Y-4868675D01*
X11170000Y-6400000D02*
X11004231Y-6400000D01*
D13*
X11004231Y-6400000D02*
X9406598Y-4868675D01*
D14*
X11170000Y-6400000D02*
X10984231Y-6400000D01*
D13*
X10984231Y-6400000D02*
X9230427Y-8153804D01*
X970000Y-3080000D02*
X3288919Y-3080000D01*
D14*
X3288919Y-3080000D02*
X3577373Y-2791546D01*
D13*
X1500000Y-5640700D02*
X970000Y-3080000D01*
D14*
X970000Y-3080000D02*
X970000Y-3080000D01*
X5299300Y-7139300D02*
X5530000Y-7139300D01*
D13*
X5530000Y-7139300D02*
X5277677Y-10544165D01*
D14*
X5277677Y-10544165D02*
X4992627Y-10451546D01*
X5002627Y-2328454D02*
X5971546Y-2328454D01*
D13*
X5971546Y-2328454D02*
X7270000Y-1030000D01*
X7270000Y-11750000D02*
X8173402Y-9608675D01*
D14*
X8173402Y-9608675D02*
X8349573Y-9366196D01*
X4992627Y-10451546D02*
X5300000Y-10550000D01*
D13*
X5300000Y-10550000D02*
X7270000Y-11750000D01*
D14*
X5530000Y-5640700D02*
X5530000Y-5340980D01*
X1500000Y-7439020D02*
X1500000Y-7139300D01*
D13*
X5530000Y-5340980D02*
X1500000Y-7439020D01*
D14*
X5530000Y-5640700D02*
X5530000Y-5340980D01*
D13*
X5530000Y-5340980D02*
X8173402Y-3171325D01*
X1500000Y-7139300D02*
X970000Y-9700000D01*
D14*
X970000Y-9700000D02*
X970000Y-9700000D01*
D13*
X970000Y-9700000D02*
X3282323Y-9895835D01*
D14*
X3282323Y-9895835D02*
X3567373Y-9988454D01*
D15*
G36*
X8207472Y-2956217D02*
X8223652Y-2944461D01*
X8404690Y-3193640D01*
X8388510Y-3205395D01*
X8782584Y-3747792D01*
X8887344Y-3764384D01*
X9053877Y-3643391D01*
X9004785Y-4041576D01*
X8389509Y-4488600D01*
X8311864Y-4570870D01*
X8267878Y-4684041D01*
X8271387Y-4805409D01*
X8321839Y-4915850D01*
X9026523Y-5885764D01*
X9108793Y-5963409D01*
X9221964Y-6007395D01*
X9343332Y-6003886D01*
X9453773Y-5953434D01*
X9659675Y-5803837D01*
X10070177Y-6197301D01*
X10069819Y-6607305D01*
X9683588Y-6993536D01*
X9453773Y-6826566D01*
X9351536Y-6778144D01*
X9230311Y-6771283D01*
X9115968Y-6812125D01*
X9026523Y-6894236D01*
X8321839Y-7864150D01*
X8273417Y-7966387D01*
X8266556Y-8087612D01*
X8307398Y-8201955D01*
X8389509Y-8291400D01*
X9255977Y-8920926D01*
X9087704Y-9153921D01*
X8220577Y-8523916D01*
X8118340Y-8475494D01*
X7997115Y-8468633D01*
X7882772Y-8509475D01*
X7793327Y-8591586D01*
X7088643Y-9561500D01*
X7040221Y-9663737D01*
X7033360Y-9784962D01*
X7074202Y-9899305D01*
X7156313Y-9988750D01*
X7396694Y-10163397D01*
X7191430Y-10649932D01*
X7052156Y-10649810D01*
X6678466Y-10804216D01*
X6233212Y-10532995D01*
X6323921Y-10253822D01*
X6338381Y-10141626D01*
X6307446Y-10024214D01*
X6233268Y-9928088D01*
X6127536Y-9868395D01*
X5836144Y-9773716D01*
X5942070Y-8344337D01*
X6129440Y-8344337D01*
X6240613Y-8323418D01*
X6342719Y-8257715D01*
X6411218Y-8157463D01*
X6435317Y-8038460D01*
X6435317Y-6839580D01*
X6414398Y-6728407D01*
X6348695Y-6626301D01*
X6248443Y-6557802D01*
X6129440Y-6533703D01*
X4930560Y-6533703D01*
X4819387Y-6554622D01*
X4717281Y-6620325D01*
X4648782Y-6720577D01*
X4624683Y-6839580D01*
X4624683Y-8038460D01*
X4645602Y-8149633D01*
X4711305Y-8251739D01*
X4811557Y-8320238D01*
X4930560Y-8344337D01*
X4939327Y-8344337D01*
X4854508Y-9488896D01*
X4757726Y-9514396D01*
X4661600Y-9588574D01*
X4601907Y-9694306D01*
X4278704Y-10689023D01*
X4001752Y-10592309D01*
X4066976Y-10391569D01*
X4018823Y-10297064D01*
X3381197Y-10089886D01*
X3375017Y-10108907D01*
X3082091Y-10013731D01*
X3088272Y-9994709D01*
X2479665Y-9796961D01*
X3476374Y-9796961D01*
X4114001Y-10004138D01*
X4208506Y-9955985D01*
X4304538Y-9660429D01*
X4341418Y-9546924D01*
X4332055Y-9427944D01*
X4277873Y-9321604D01*
X4187120Y-9244094D01*
X3778057Y-9111182D01*
X3683552Y-9159335D01*
X3476374Y-9796961D01*
X2479665Y-9796961D01*
X2450645Y-9787532D01*
X2356140Y-9835685D01*
X2303040Y-9999109D01*
X2055004Y-9912493D01*
X2086183Y-9809597D01*
X2045728Y-9400101D01*
X2497670Y-9400101D01*
X2545823Y-9494606D01*
X3183449Y-9701784D01*
X3390626Y-9064157D01*
X3342473Y-8969652D01*
X2933411Y-8836739D01*
X2814431Y-8846103D01*
X2708092Y-8900286D01*
X2630582Y-8991039D01*
X2593702Y-9104545D01*
X2497670Y-9400101D01*
X2045728Y-9400101D01*
X2043160Y-9374109D01*
X1959278Y-9171602D01*
X1810861Y-9076928D01*
X1254750Y-9633039D01*
X1099463Y-9578812D01*
X1097763Y-9354448D01*
X1593072Y-8859139D01*
X1498398Y-8710722D01*
X1091954Y-8587561D01*
X1090066Y-8338460D01*
X1271000Y-8338460D01*
X1346000Y-8263460D01*
X1346000Y-7593020D01*
X1654000Y-7593020D01*
X1654000Y-8263460D01*
X1729000Y-8338460D01*
X2159113Y-8338460D01*
X2269376Y-8292788D01*
X2353768Y-8208397D01*
X2399440Y-8098134D01*
X2399440Y-7668020D01*
X2324440Y-7593020D01*
X1654000Y-7593020D01*
X1346000Y-7593020D01*
X1326000Y-7593020D01*
X1326000Y-7285020D01*
X1346000Y-7285020D01*
X1346000Y-6614580D01*
X1654000Y-6614580D01*
X1654000Y-7285020D01*
X2324440Y-7285020D01*
X2399440Y-7210020D01*
X2399440Y-6779906D01*
X2353768Y-6669643D01*
X2269376Y-6585252D01*
X2159113Y-6539580D01*
X1729000Y-6539580D01*
X1654000Y-6614580D01*
X1346000Y-6614580D01*
X1271000Y-6539580D01*
X1076439Y-6539580D01*
X1074217Y-6246297D01*
X2099440Y-6246297D01*
X2210613Y-6225378D01*
X2312719Y-6159675D01*
X2381218Y-6059423D01*
X2405317Y-5940420D01*
X2405317Y-5569980D01*
X4630560Y-5569980D01*
X4630560Y-6000094D01*
X4676232Y-6110357D01*
X4760624Y-6194748D01*
X4870887Y-6240420D01*
X5301000Y-6240420D01*
X5376000Y-6165420D01*
X5376000Y-5494980D01*
X5684000Y-5494980D01*
X5684000Y-6165420D01*
X5759000Y-6240420D01*
X6189113Y-6240420D01*
X6299376Y-6194748D01*
X6383768Y-6110357D01*
X6429440Y-6000094D01*
X6429440Y-5569980D01*
X6354440Y-5494980D01*
X5684000Y-5494980D01*
X5376000Y-5494980D01*
X4705560Y-5494980D01*
X4630560Y-5569980D01*
X2405317Y-5569980D01*
X2405317Y-4741540D01*
X2394089Y-4681866D01*
X4630560Y-4681866D01*
X4630560Y-5111980D01*
X4705560Y-5186980D01*
X5376000Y-5186980D01*
X5376000Y-4516540D01*
X5684000Y-4516540D01*
X5684000Y-5186980D01*
X6354440Y-5186980D01*
X6429440Y-5111980D01*
X6429440Y-4681866D01*
X6383768Y-4571603D01*
X6299376Y-4487212D01*
X6189113Y-4441540D01*
X5759000Y-4441540D01*
X5684000Y-4516540D01*
X5376000Y-4516540D01*
X5301000Y-4441540D01*
X4870887Y-4441540D01*
X4760624Y-4487212D01*
X4676232Y-4571603D01*
X4630560Y-4681866D01*
X2394089Y-4681866D01*
X2384398Y-4630367D01*
X2318695Y-4528261D01*
X2218443Y-4459762D01*
X2099440Y-4435663D01*
X1761186Y-4435663D01*
X1659777Y-3945705D01*
X1901991Y-3703913D01*
X1953444Y-3580000D01*
X2566508Y-3580000D01*
X2616553Y-3734024D01*
X2670802Y-3833292D01*
X2764842Y-3910097D01*
X2881354Y-3944264D01*
X3001980Y-3930409D01*
X3564309Y-3747697D01*
X3985379Y-4088604D01*
X4030472Y-4112323D01*
X4070289Y-4144108D01*
X4115959Y-4157290D01*
X4158040Y-4179425D01*
X4208779Y-4184082D01*
X4257727Y-4198210D01*
X4304974Y-4192910D01*
X4352314Y-4197255D01*
X4400967Y-4182143D01*
X4451602Y-4176463D01*
X5366789Y-3885267D01*
X7580343Y-3885267D01*
X7833157Y-4233237D01*
X7934918Y-4295596D01*
X8052796Y-4314266D01*
X8168846Y-4286404D01*
X8265400Y-4216254D01*
X8516815Y-4033590D01*
X8533407Y-3928830D01*
X8139332Y-3386433D01*
X7596935Y-3780507D01*
X7580343Y-3885267D01*
X5366789Y-3885267D01*
X6651602Y-3476463D01*
X6712771Y-3442696D01*
X6777350Y-3416025D01*
X7088641Y-3208498D01*
X7311137Y-3514738D01*
X7415897Y-3531330D01*
X7958294Y-3137255D01*
X7946538Y-3121075D01*
X8195717Y-2940037D01*
X8207472Y-2956217D01*
X8207472Y-2956217D01*
G37*
X8207472Y-2956217D02*
X8223652Y-2944461D01*
X8404690Y-3193640D01*
X8388510Y-3205395D01*
X8782584Y-3747792D01*
X8887344Y-3764384D01*
X9053877Y-3643391D01*
X9004785Y-4041576D01*
X8389509Y-4488600D01*
X8311864Y-4570870D01*
X8267878Y-4684041D01*
X8271387Y-4805409D01*
X8321839Y-4915850D01*
X9026523Y-5885764D01*
X9108793Y-5963409D01*
X9221964Y-6007395D01*
X9343332Y-6003886D01*
X9453773Y-5953434D01*
X9659675Y-5803837D01*
X10070177Y-6197301D01*
X10069819Y-6607305D01*
X9683588Y-6993536D01*
X9453773Y-6826566D01*
X9351536Y-6778144D01*
X9230311Y-6771283D01*
X9115968Y-6812125D01*
X9026523Y-6894236D01*
X8321839Y-7864150D01*
X8273417Y-7966387D01*
X8266556Y-8087612D01*
X8307398Y-8201955D01*
X8389509Y-8291400D01*
X9255977Y-8920926D01*
X9087704Y-9153921D01*
X8220577Y-8523916D01*
X8118340Y-8475494D01*
X7997115Y-8468633D01*
X7882772Y-8509475D01*
X7793327Y-8591586D01*
X7088643Y-9561500D01*
X7040221Y-9663737D01*
X7033360Y-9784962D01*
X7074202Y-9899305D01*
X7156313Y-9988750D01*
X7396694Y-10163397D01*
X7191430Y-10649932D01*
X7052156Y-10649810D01*
X6678466Y-10804216D01*
X6233212Y-10532995D01*
X6323921Y-10253822D01*
X6338381Y-10141626D01*
X6307446Y-10024214D01*
X6233268Y-9928088D01*
X6127536Y-9868395D01*
X5836144Y-9773716D01*
X5942070Y-8344337D01*
X6129440Y-8344337D01*
X6240613Y-8323418D01*
X6342719Y-8257715D01*
X6411218Y-8157463D01*
X6435317Y-8038460D01*
X6435317Y-6839580D01*
X6414398Y-6728407D01*
X6348695Y-6626301D01*
X6248443Y-6557802D01*
X6129440Y-6533703D01*
X4930560Y-6533703D01*
X4819387Y-6554622D01*
X4717281Y-6620325D01*
X4648782Y-6720577D01*
X4624683Y-6839580D01*
X4624683Y-8038460D01*
X4645602Y-8149633D01*
X4711305Y-8251739D01*
X4811557Y-8320238D01*
X4930560Y-8344337D01*
X4939327Y-8344337D01*
X4854508Y-9488896D01*
X4757726Y-9514396D01*
X4661600Y-9588574D01*
X4601907Y-9694306D01*
X4278704Y-10689023D01*
X4001752Y-10592309D01*
X4066976Y-10391569D01*
X4018823Y-10297064D01*
X3381197Y-10089886D01*
X3375017Y-10108907D01*
X3082091Y-10013731D01*
X3088272Y-9994709D01*
X2479665Y-9796961D01*
X3476374Y-9796961D01*
X4114001Y-10004138D01*
X4208506Y-9955985D01*
X4304538Y-9660429D01*
X4341418Y-9546924D01*
X4332055Y-9427944D01*
X4277873Y-9321604D01*
X4187120Y-9244094D01*
X3778057Y-9111182D01*
X3683552Y-9159335D01*
X3476374Y-9796961D01*
X2479665Y-9796961D01*
X2450645Y-9787532D01*
X2356140Y-9835685D01*
X2303040Y-9999109D01*
X2055004Y-9912493D01*
X2086183Y-9809597D01*
X2045728Y-9400101D01*
X2497670Y-9400101D01*
X2545823Y-9494606D01*
X3183449Y-9701784D01*
X3390626Y-9064157D01*
X3342473Y-8969652D01*
X2933411Y-8836739D01*
X2814431Y-8846103D01*
X2708092Y-8900286D01*
X2630582Y-8991039D01*
X2593702Y-9104545D01*
X2497670Y-9400101D01*
X2045728Y-9400101D01*
X2043160Y-9374109D01*
X1959278Y-9171602D01*
X1810861Y-9076928D01*
X1254750Y-9633039D01*
X1099463Y-9578812D01*
X1097763Y-9354448D01*
X1593072Y-8859139D01*
X1498398Y-8710722D01*
X1091954Y-8587561D01*
X1090066Y-8338460D01*
X1271000Y-8338460D01*
X1346000Y-8263460D01*
X1346000Y-7593020D01*
X1654000Y-7593020D01*
X1654000Y-8263460D01*
X1729000Y-8338460D01*
X2159113Y-8338460D01*
X2269376Y-8292788D01*
X2353768Y-8208397D01*
X2399440Y-8098134D01*
X2399440Y-7668020D01*
X2324440Y-7593020D01*
X1654000Y-7593020D01*
X1346000Y-7593020D01*
X1326000Y-7593020D01*
X1326000Y-7285020D01*
X1346000Y-7285020D01*
X1346000Y-6614580D01*
X1654000Y-6614580D01*
X1654000Y-7285020D01*
X2324440Y-7285020D01*
X2399440Y-7210020D01*
X2399440Y-6779906D01*
X2353768Y-6669643D01*
X2269376Y-6585252D01*
X2159113Y-6539580D01*
X1729000Y-6539580D01*
X1654000Y-6614580D01*
X1346000Y-6614580D01*
X1271000Y-6539580D01*
X1076439Y-6539580D01*
X1074217Y-6246297D01*
X2099440Y-6246297D01*
X2210613Y-6225378D01*
X2312719Y-6159675D01*
X2381218Y-6059423D01*
X2405317Y-5940420D01*
X2405317Y-5569980D01*
X4630560Y-5569980D01*
X4630560Y-6000094D01*
X4676232Y-6110357D01*
X4760624Y-6194748D01*
X4870887Y-6240420D01*
X5301000Y-6240420D01*
X5376000Y-6165420D01*
X5376000Y-5494980D01*
X5684000Y-5494980D01*
X5684000Y-6165420D01*
X5759000Y-6240420D01*
X6189113Y-6240420D01*
X6299376Y-6194748D01*
X6383768Y-6110357D01*
X6429440Y-6000094D01*
X6429440Y-5569980D01*
X6354440Y-5494980D01*
X5684000Y-5494980D01*
X5376000Y-5494980D01*
X4705560Y-5494980D01*
X4630560Y-5569980D01*
X2405317Y-5569980D01*
X2405317Y-4741540D01*
X2394089Y-4681866D01*
X4630560Y-4681866D01*
X4630560Y-5111980D01*
X4705560Y-5186980D01*
X5376000Y-5186980D01*
X5376000Y-4516540D01*
X5684000Y-4516540D01*
X5684000Y-5186980D01*
X6354440Y-5186980D01*
X6429440Y-5111980D01*
X6429440Y-4681866D01*
X6383768Y-4571603D01*
X6299376Y-4487212D01*
X6189113Y-4441540D01*
X5759000Y-4441540D01*
X5684000Y-4516540D01*
X5376000Y-4516540D01*
X5301000Y-4441540D01*
X4870887Y-4441540D01*
X4760624Y-4487212D01*
X4676232Y-4571603D01*
X4630560Y-4681866D01*
X2394089Y-4681866D01*
X2384398Y-4630367D01*
X2318695Y-4528261D01*
X2218443Y-4459762D01*
X2099440Y-4435663D01*
X1761186Y-4435663D01*
X1659777Y-3945705D01*
X1901991Y-3703913D01*
X1953444Y-3580000D01*
X2566508Y-3580000D01*
X2616553Y-3734024D01*
X2670802Y-3833292D01*
X2764842Y-3910097D01*
X2881354Y-3944264D01*
X3001980Y-3930409D01*
X3564309Y-3747697D01*
X3985379Y-4088604D01*
X4030472Y-4112323D01*
X4070289Y-4144108D01*
X4115959Y-4157290D01*
X4158040Y-4179425D01*
X4208779Y-4184082D01*
X4257727Y-4198210D01*
X4304974Y-4192910D01*
X4352314Y-4197255D01*
X4400967Y-4182143D01*
X4451602Y-4176463D01*
X5366789Y-3885267D01*
X7580343Y-3885267D01*
X7833157Y-4233237D01*
X7934918Y-4295596D01*
X8052796Y-4314266D01*
X8168846Y-4286404D01*
X8265400Y-4216254D01*
X8516815Y-4033590D01*
X8533407Y-3928830D01*
X8139332Y-3386433D01*
X7596935Y-3780507D01*
X7580343Y-3885267D01*
X5366789Y-3885267D01*
X6651602Y-3476463D01*
X6712771Y-3442696D01*
X6777350Y-3416025D01*
X7088641Y-3208498D01*
X7311137Y-3514738D01*
X7415897Y-3531330D01*
X7958294Y-3137255D01*
X7946538Y-3121075D01*
X8195717Y-2940037D01*
X8207472Y-2956217D01*
M02*
