M48
METRIC,TZ
T1C0.400
T2C0.800
T3C1.016
%
G90
G05
T1
X-9.4Y2.75
X-6.6Y0.1
X-6.6Y-1.8
X-5.3Y2.
X-0.1Y9.4
X1.6Y-9.2
X2.4Y-4.6
X3.2Y8.1
X5.6Y5.9
X5.95Y-0.85
X9.68Y1.03
T2
X-11.4Y4.6
X-11.4Y-2.6
X-6.67Y10.81
X-6.67Y-8.81
X-0.37Y12.86
X-0.37Y-10.86
X7.27Y10.38
X7.27Y-8.37
X11.16Y5.02
X11.16Y-3.02
T3
X-4.6Y-9.4
X-3.3Y11.6
X-2.5Y-10.1
X8.39Y-6.4
X9.69Y-4.59
T0
M30
