G04 #@! TF.FileFunction,Profile,NP*
%FSLAX46Y46*%
G04 Gerber Fmt 4.6, Leading zero omitted, Abs format (unit mm)*
G04 Created by KiCad (PCBNEW 4.0.5+dfsg1-4) date Tue Feb 14 02:51:41 2017*
%MOMM*%
%LPD*%
G01*
G04 APERTURE LIST*
%ADD10C,0.100000*%
%ADD11C,0.254000*%
G04 APERTURE END LIST*
D10*
D11*
X-325120Y-11895580D02*
X-7317740Y-9622280D01*
X-7317740Y-9622280D02*
X-7840980Y-9241280D01*
X-7840980Y-9241280D02*
X-12164060Y-3292600D01*
X-12164060Y-3292600D02*
X-12364720Y-2675380D01*
X-12364720Y-2675380D02*
X-12364720Y4675380D01*
X-12364720Y4675380D02*
X-12164060Y5292600D01*
X-12164060Y5292600D02*
X-7840980Y11241280D01*
X-7840980Y11241280D02*
X-7317740Y11622280D01*
X-7317740Y11622280D02*
X-325120Y13895580D01*
X-325120Y13895580D02*
X325120Y13895580D01*
X325120Y13895580D02*
X7317740Y11622280D01*
X7317740Y11622280D02*
X7840980Y11241280D01*
X7840980Y11241280D02*
X12164060Y5292600D01*
X12164060Y5292600D02*
X12364720Y4675380D01*
X12364720Y4675380D02*
X12364720Y-2675380D01*
X12364720Y-2675380D02*
X12164060Y-3292600D01*
X12164060Y-3292600D02*
X7840980Y-9241280D01*
X7840980Y-9241280D02*
X7317740Y-9622280D01*
X7317740Y-9622280D02*
X325120Y-11895580D01*
X325120Y-11895580D02*
X-325120Y-11895580D01*
M02*
