G04 #@! TF.FileFunction,Soldermask,Bot*
%FSLAX46Y46*%
G04 Gerber Fmt 4.6, Leading zero omitted, Abs format (unit mm)*
G04 Created by KiCad (PCBNEW 4.0.5+dfsg1-4) date Tue Feb 14 02:51:41 2017*
%MOMM*%
%LPD*%
G01*
G04 APERTURE LIST*
%ADD10C,0.100000*%
%ADD11C,2.127200*%
%ADD12R,0.800000X1.750000*%
%ADD13R,1.300000X0.900000*%
%ADD14R,0.900000X1.300000*%
%ADD15C,2.000000*%
%ADD16C,0.200000*%
G04 APERTURE END LIST*
D10*
D11*
X9690000Y-4590000D03*
X-4600000Y-9400000D03*
X8390000Y-6400000D03*
X-2500000Y-10100000D03*
X-3300000Y11600000D03*
D12*
X-2275000Y-1875000D03*
X-2925000Y-1875000D03*
X-1625000Y-1875000D03*
X-975000Y-1875000D03*
X-2925000Y3875000D03*
X-2275000Y3875000D03*
X-1625000Y3875000D03*
X-975000Y3875000D03*
X-325000Y3875000D03*
X325000Y3875000D03*
X975600Y3875000D03*
X1625000Y3875000D03*
X2275000Y3875000D03*
X2925000Y3875000D03*
X2925000Y-1875000D03*
X2275000Y-1875000D03*
X1625000Y-1875000D03*
X975000Y-1875000D03*
X325000Y-1875000D03*
X-325000Y-1875000D03*
D13*
X0Y-3750000D03*
X0Y-5250000D03*
D14*
X-2600000Y6300000D03*
X-4100000Y6300000D03*
D15*
X-11400000Y4600000D03*
X-6670000Y10810000D03*
X-370000Y12860000D03*
X7270000Y10380000D03*
X11160000Y5020000D03*
X11160000Y-3020000D03*
X7270000Y-8370000D03*
X-6670000Y-8810000D03*
X-370000Y-10860000D03*
X-11400000Y-2600000D03*
D13*
X-4300000Y3450000D03*
X-4300000Y1950000D03*
D16*
G36*
X7198276Y10294913D02*
X11060040Y4997365D01*
X11069960Y-2997544D01*
X7218212Y-8294934D01*
X-350106Y-10754885D01*
X-6609405Y-8734479D01*
X-11300000Y-2566297D01*
X-11300000Y4566253D01*
X-6609366Y10724569D01*
X-369982Y12754845D01*
X7198276Y10294913D01*
X7198276Y10294913D01*
G37*
X7198276Y10294913D02*
X11060040Y4997365D01*
X11069960Y-2997544D01*
X7218212Y-8294934D01*
X-350106Y-10754885D01*
X-6609405Y-8734479D01*
X-11300000Y-2566297D01*
X-11300000Y4566253D01*
X-6609366Y10724569D01*
X-369982Y12754845D01*
X7198276Y10294913D01*
M02*
