G04 #@! TF.FileFunction,Legend,Top*
%FSLAX46Y46*%
G04 Gerber Fmt 4.6, Leading zero omitted, Abs format (unit mm)*
G04 Created by KiCad (PCBNEW 4.0.5+dfsg1-4) date Tue Feb 14 02:51:41 2017*
%MOMM*%
%LPD*%
G01*
G04 APERTURE LIST*
%ADD10C,0.100000*%
%ADD11C,0.150000*%
G04 APERTURE END LIST*
D10*
D11*
X-7947619Y10097619D02*
X-7852380Y10097619D01*
X-7757142Y10050000D01*
X-7709523Y10002381D01*
X-7661904Y9907143D01*
X-7614285Y9716667D01*
X-7614285Y9478571D01*
X-7661904Y9288095D01*
X-7709523Y9192857D01*
X-7757142Y9145238D01*
X-7852380Y9097619D01*
X-7947619Y9097619D01*
X-8042857Y9145238D01*
X-8090476Y9192857D01*
X-8138095Y9288095D01*
X-8185714Y9478571D01*
X-8185714Y9716667D01*
X-8138095Y9907143D01*
X-8090476Y10002381D01*
X-8042857Y10050000D01*
X-7947619Y10097619D01*
X-4414286Y9914286D02*
X-4414286Y9247619D01*
X-4414286Y9819048D02*
X-4366667Y9866667D01*
X-4271429Y9914286D01*
X-4128571Y9914286D01*
X-4033333Y9866667D01*
X-3985714Y9771429D01*
X-3985714Y9247619D01*
X-3509524Y9247619D02*
X-3509524Y9914286D01*
X-3509524Y9723810D02*
X-3461905Y9819048D01*
X-3414286Y9866667D01*
X-3319048Y9914286D01*
X-3223809Y9914286D01*
X-2938095Y9295238D02*
X-2842857Y9247619D01*
X-2652381Y9247619D01*
X-2557142Y9295238D01*
X-2509523Y9390476D01*
X-2509523Y9438095D01*
X-2557142Y9533333D01*
X-2652381Y9580952D01*
X-2795238Y9580952D01*
X-2890476Y9628571D01*
X-2938095Y9723810D01*
X-2938095Y9771429D01*
X-2890476Y9866667D01*
X-2795238Y9914286D01*
X-2652381Y9914286D01*
X-2557142Y9866667D01*
X-2223809Y9914286D02*
X-1842857Y9914286D01*
X-2080952Y10247619D02*
X-2080952Y9390476D01*
X-2033333Y9295238D01*
X-1938095Y9247619D01*
X-1842857Y9247619D01*
X-2980952Y-8804762D02*
X-2885714Y-8852381D01*
X-2695238Y-8852381D01*
X-2599999Y-8804762D01*
X-2552380Y-8709524D01*
X-2552380Y-8661905D01*
X-2599999Y-8566667D01*
X-2695238Y-8519048D01*
X-2838095Y-8519048D01*
X-2933333Y-8471429D01*
X-2980952Y-8376190D01*
X-2980952Y-8328571D01*
X-2933333Y-8233333D01*
X-2838095Y-8185714D01*
X-2695238Y-8185714D01*
X-2599999Y-8233333D01*
X-2219047Y-8185714D02*
X-2028571Y-8852381D01*
X-1838094Y-8376190D01*
X-1647618Y-8852381D01*
X-1457142Y-8185714D01*
X-647618Y-8852381D02*
X-647618Y-7852381D01*
X-647618Y-8804762D02*
X-742856Y-8852381D01*
X-933333Y-8852381D01*
X-1028571Y-8804762D01*
X-1076190Y-8757143D01*
X-1123809Y-8661905D01*
X-1123809Y-8376190D01*
X-1076190Y-8280952D01*
X-1028571Y-8233333D01*
X-933333Y-8185714D01*
X-742856Y-8185714D01*
X-647618Y-8233333D01*
X-171428Y-8852381D02*
X-171428Y-8185714D01*
X-171428Y-7852381D02*
X-219047Y-7900000D01*
X-171428Y-7947619D01*
X-123809Y-7900000D01*
X-171428Y-7852381D01*
X-171428Y-7947619D01*
X447619Y-8852381D02*
X352381Y-8804762D01*
X304762Y-8757143D01*
X257143Y-8661905D01*
X257143Y-8376190D01*
X304762Y-8280952D01*
X352381Y-8233333D01*
X447619Y-8185714D01*
X590477Y-8185714D01*
X685715Y-8233333D01*
X733334Y-8280952D01*
X780953Y-8376190D01*
X780953Y-8661905D01*
X733334Y-8757143D01*
X685715Y-8804762D01*
X590477Y-8852381D01*
X447619Y-8852381D01*
X5209524Y-6085714D02*
X5209524Y-6895238D01*
X5161905Y-6990476D01*
X5114286Y-7038095D01*
X5019047Y-7085714D01*
X4876190Y-7085714D01*
X4780952Y-7038095D01*
X5209524Y-6704762D02*
X5114286Y-6752381D01*
X4923809Y-6752381D01*
X4828571Y-6704762D01*
X4780952Y-6657143D01*
X4733333Y-6561905D01*
X4733333Y-6276190D01*
X4780952Y-6180952D01*
X4828571Y-6133333D01*
X4923809Y-6085714D01*
X5114286Y-6085714D01*
X5209524Y-6133333D01*
X5685714Y-6085714D02*
X5685714Y-6752381D01*
X5685714Y-6180952D02*
X5733333Y-6133333D01*
X5828571Y-6085714D01*
X5971429Y-6085714D01*
X6066667Y-6133333D01*
X6114286Y-6228571D01*
X6114286Y-6752381D01*
X7019048Y-6752381D02*
X7019048Y-5752381D01*
X7019048Y-6704762D02*
X6923810Y-6752381D01*
X6733333Y-6752381D01*
X6638095Y-6704762D01*
X6590476Y-6657143D01*
X6542857Y-6561905D01*
X6542857Y-6276190D01*
X6590476Y-6180952D01*
X6638095Y-6133333D01*
X6733333Y-6085714D01*
X6923810Y-6085714D01*
X7019048Y-6133333D01*
X-6333334Y-7804762D02*
X-6238096Y-7852381D01*
X-6047620Y-7852381D01*
X-5952381Y-7804762D01*
X-5904762Y-7709524D01*
X-5904762Y-7661905D01*
X-5952381Y-7566667D01*
X-6047620Y-7519048D01*
X-6190477Y-7519048D01*
X-6285715Y-7471429D01*
X-6333334Y-7376190D01*
X-6333334Y-7328571D01*
X-6285715Y-7233333D01*
X-6190477Y-7185714D01*
X-6047620Y-7185714D01*
X-5952381Y-7233333D01*
X-5571429Y-7185714D02*
X-5380953Y-7852381D01*
X-5190476Y-7376190D01*
X-5000000Y-7852381D01*
X-4809524Y-7185714D01*
X-4000000Y-7804762D02*
X-4095238Y-7852381D01*
X-4285715Y-7852381D01*
X-4380953Y-7804762D01*
X-4428572Y-7757143D01*
X-4476191Y-7661905D01*
X-4476191Y-7376190D01*
X-4428572Y-7280952D01*
X-4380953Y-7233333D01*
X-4285715Y-7185714D01*
X-4095238Y-7185714D01*
X-4000000Y-7233333D01*
X-3428572Y-7852381D02*
X-3523810Y-7804762D01*
X-3571429Y-7709524D01*
X-3571429Y-6852381D01*
X-3047619Y-7852381D02*
X-3047619Y-6852381D01*
X-2952381Y-7471429D02*
X-2666666Y-7852381D01*
X-2666666Y-7185714D02*
X-3047619Y-7566667D01*
X6304762Y-4435714D02*
X6542857Y-5102381D01*
X6780953Y-4435714D01*
X7590477Y-5054762D02*
X7495239Y-5102381D01*
X7304762Y-5102381D01*
X7209524Y-5054762D01*
X7161905Y-5007143D01*
X7114286Y-4911905D01*
X7114286Y-4626190D01*
X7161905Y-4530952D01*
X7209524Y-4483333D01*
X7304762Y-4435714D01*
X7495239Y-4435714D01*
X7590477Y-4483333D01*
X8447620Y-5054762D02*
X8352382Y-5102381D01*
X8161905Y-5102381D01*
X8066667Y-5054762D01*
X8019048Y-5007143D01*
X7971429Y-4911905D01*
X7971429Y-4626190D01*
X8019048Y-4530952D01*
X8066667Y-4483333D01*
X8161905Y-4435714D01*
X8352382Y-4435714D01*
X8447620Y-4483333D01*
M02*
